<?xml version="1.0" encoding="utf-8" standalone="no"?>
<!DOCTYPE svg PUBLIC "-//W3C//DTD SVG 1.1//EN"
  "http://www.w3.org/Graphics/SVG/1.1/DTD/svg11.dtd">
<svg xmlns:xlink="http://www.w3.org/1999/xlink" width="460.8pt" height="345.6pt" viewBox="0 0 460.8 345.6" xmlns="http://www.w3.org/2000/svg" version="1.1">
 <metadata>
  <rdf:RDF xmlns:dc="http://purl.org/dc/elements/1.1/" xmlns:cc="http://creativecommons.org/ns#" xmlns:rdf="http://www.w3.org/1999/02/22-rdf-syntax-ns#">
   <cc:Work>
    <dc:type rdf:resource="http://purl.org/dc/dcmitype/StillImage"/>
    <dc:date>2024-07-25T17:07:27.242271</dc:date>
    <dc:format>image/svg+xml</dc:format>
    <dc:creator>
     <cc:Agent>
      <dc:title>Matplotlib v3.7.2, https://matplotlib.org/</dc:title>
     </cc:Agent>
    </dc:creator>
   </cc:Work>
  </rdf:RDF>
 </metadata>
 <defs>
  <style type="text/css">*{stroke-linejoin: round; stroke-linecap: butt}</style>
 </defs>
 <g id="figure_1">
  <g id="patch_1">
   <path d="M 0 345.6 
L 460.8 345.6 
L 460.8 0 
L 0 0 
z
" style="fill: #ffffff"/>
  </g>
  <g id="axes_1">
   <g id="patch_2">
    <path d="M 57.6 307.584 
L 414.72 307.584 
L 414.72 41.472 
L 57.6 41.472 
z
" style="fill: #ffffff"/>
   </g>
   <g id="matplotlib.axis_1">
    <g id="xtick_1">
     <g id="line2d_1">
      <path d="M 73.832727 307.584 
L 73.832727 41.472 
" clip-path="url(#pa347c4ff28)" style="fill: none; stroke: #b0b0b0; stroke-width: 0.8; stroke-linecap: square"/>
     </g>
     <g id="line2d_2">
      <defs>
       <path id="m5e186b98b8" d="M 0 0 
L 0 3.5 
" style="stroke: #000000; stroke-width: 0.8"/>
      </defs>
      <g>
       <use xlink:href="#m5e186b98b8" x="73.832727" y="307.584" style="stroke: #000000; stroke-width: 0.8"/>
      </g>
     </g>
     <g id="text_1">
      <!-- 0 -->
      <g transform="translate(70.651477 322.182437) scale(0.1 -0.1)">
       <defs>
        <path id="DejaVuSans-30" d="M 2034 4250 
Q 1547 4250 1301 3770 
Q 1056 3291 1056 2328 
Q 1056 1369 1301 889 
Q 1547 409 2034 409 
Q 2525 409 2770 889 
Q 3016 1369 3016 2328 
Q 3016 3291 2770 3770 
Q 2525 4250 2034 4250 
z
M 2034 4750 
Q 2819 4750 3233 4129 
Q 3647 3509 3647 2328 
Q 3647 1150 3233 529 
Q 2819 -91 2034 -91 
Q 1250 -91 836 529 
Q 422 1150 422 2328 
Q 422 3509 836 4129 
Q 1250 4750 2034 4750 
z
" transform="scale(0.015625)"/>
       </defs>
       <use xlink:href="#DejaVuSans-30"/>
      </g>
     </g>
    </g>
    <g id="xtick_2">
     <g id="line2d_3">
      <path d="M 135.384447 307.584 
L 135.384447 41.472 
" clip-path="url(#pa347c4ff28)" style="fill: none; stroke: #b0b0b0; stroke-width: 0.8; stroke-linecap: square"/>
     </g>
     <g id="line2d_4">
      <g>
       <use xlink:href="#m5e186b98b8" x="135.384447" y="307.584" style="stroke: #000000; stroke-width: 0.8"/>
      </g>
     </g>
     <g id="text_2">
      <!-- 20000 -->
      <g transform="translate(119.478197 322.182437) scale(0.1 -0.1)">
       <defs>
        <path id="DejaVuSans-32" d="M 1228 531 
L 3431 531 
L 3431 0 
L 469 0 
L 469 531 
Q 828 903 1448 1529 
Q 2069 2156 2228 2338 
Q 2531 2678 2651 2914 
Q 2772 3150 2772 3378 
Q 2772 3750 2511 3984 
Q 2250 4219 1831 4219 
Q 1534 4219 1204 4116 
Q 875 4013 500 3803 
L 500 4441 
Q 881 4594 1212 4672 
Q 1544 4750 1819 4750 
Q 2544 4750 2975 4387 
Q 3406 4025 3406 3419 
Q 3406 3131 3298 2873 
Q 3191 2616 2906 2266 
Q 2828 2175 2409 1742 
Q 1991 1309 1228 531 
z
" transform="scale(0.015625)"/>
       </defs>
       <use xlink:href="#DejaVuSans-32"/>
       <use xlink:href="#DejaVuSans-30" x="63.623047"/>
       <use xlink:href="#DejaVuSans-30" x="127.246094"/>
       <use xlink:href="#DejaVuSans-30" x="190.869141"/>
       <use xlink:href="#DejaVuSans-30" x="254.492188"/>
      </g>
     </g>
    </g>
    <g id="xtick_3">
     <g id="line2d_5">
      <path d="M 196.936167 307.584 
L 196.936167 41.472 
" clip-path="url(#pa347c4ff28)" style="fill: none; stroke: #b0b0b0; stroke-width: 0.8; stroke-linecap: square"/>
     </g>
     <g id="line2d_6">
      <g>
       <use xlink:href="#m5e186b98b8" x="196.936167" y="307.584" style="stroke: #000000; stroke-width: 0.8"/>
      </g>
     </g>
     <g id="text_3">
      <!-- 40000 -->
      <g transform="translate(181.029917 322.182437) scale(0.1 -0.1)">
       <defs>
        <path id="DejaVuSans-34" d="M 2419 4116 
L 825 1625 
L 2419 1625 
L 2419 4116 
z
M 2253 4666 
L 3047 4666 
L 3047 1625 
L 3713 1625 
L 3713 1100 
L 3047 1100 
L 3047 0 
L 2419 0 
L 2419 1100 
L 313 1100 
L 313 1709 
L 2253 4666 
z
" transform="scale(0.015625)"/>
       </defs>
       <use xlink:href="#DejaVuSans-34"/>
       <use xlink:href="#DejaVuSans-30" x="63.623047"/>
       <use xlink:href="#DejaVuSans-30" x="127.246094"/>
       <use xlink:href="#DejaVuSans-30" x="190.869141"/>
       <use xlink:href="#DejaVuSans-30" x="254.492188"/>
      </g>
     </g>
    </g>
    <g id="xtick_4">
     <g id="line2d_7">
      <path d="M 258.487886 307.584 
L 258.487886 41.472 
" clip-path="url(#pa347c4ff28)" style="fill: none; stroke: #b0b0b0; stroke-width: 0.8; stroke-linecap: square"/>
     </g>
     <g id="line2d_8">
      <g>
       <use xlink:href="#m5e186b98b8" x="258.487886" y="307.584" style="stroke: #000000; stroke-width: 0.8"/>
      </g>
     </g>
     <g id="text_4">
      <!-- 60000 -->
      <g transform="translate(242.581636 322.182437) scale(0.1 -0.1)">
       <defs>
        <path id="DejaVuSans-36" d="M 2113 2584 
Q 1688 2584 1439 2293 
Q 1191 2003 1191 1497 
Q 1191 994 1439 701 
Q 1688 409 2113 409 
Q 2538 409 2786 701 
Q 3034 994 3034 1497 
Q 3034 2003 2786 2293 
Q 2538 2584 2113 2584 
z
M 3366 4563 
L 3366 3988 
Q 3128 4100 2886 4159 
Q 2644 4219 2406 4219 
Q 1781 4219 1451 3797 
Q 1122 3375 1075 2522 
Q 1259 2794 1537 2939 
Q 1816 3084 2150 3084 
Q 2853 3084 3261 2657 
Q 3669 2231 3669 1497 
Q 3669 778 3244 343 
Q 2819 -91 2113 -91 
Q 1303 -91 875 529 
Q 447 1150 447 2328 
Q 447 3434 972 4092 
Q 1497 4750 2381 4750 
Q 2619 4750 2861 4703 
Q 3103 4656 3366 4563 
z
" transform="scale(0.015625)"/>
       </defs>
       <use xlink:href="#DejaVuSans-36"/>
       <use xlink:href="#DejaVuSans-30" x="63.623047"/>
       <use xlink:href="#DejaVuSans-30" x="127.246094"/>
       <use xlink:href="#DejaVuSans-30" x="190.869141"/>
       <use xlink:href="#DejaVuSans-30" x="254.492188"/>
      </g>
     </g>
    </g>
    <g id="xtick_5">
     <g id="line2d_9">
      <path d="M 320.039606 307.584 
L 320.039606 41.472 
" clip-path="url(#pa347c4ff28)" style="fill: none; stroke: #b0b0b0; stroke-width: 0.8; stroke-linecap: square"/>
     </g>
     <g id="line2d_10">
      <g>
       <use xlink:href="#m5e186b98b8" x="320.039606" y="307.584" style="stroke: #000000; stroke-width: 0.8"/>
      </g>
     </g>
     <g id="text_5">
      <!-- 80000 -->
      <g transform="translate(304.133356 322.182437) scale(0.1 -0.1)">
       <defs>
        <path id="DejaVuSans-38" d="M 2034 2216 
Q 1584 2216 1326 1975 
Q 1069 1734 1069 1313 
Q 1069 891 1326 650 
Q 1584 409 2034 409 
Q 2484 409 2743 651 
Q 3003 894 3003 1313 
Q 3003 1734 2745 1975 
Q 2488 2216 2034 2216 
z
M 1403 2484 
Q 997 2584 770 2862 
Q 544 3141 544 3541 
Q 544 4100 942 4425 
Q 1341 4750 2034 4750 
Q 2731 4750 3128 4425 
Q 3525 4100 3525 3541 
Q 3525 3141 3298 2862 
Q 3072 2584 2669 2484 
Q 3125 2378 3379 2068 
Q 3634 1759 3634 1313 
Q 3634 634 3220 271 
Q 2806 -91 2034 -91 
Q 1263 -91 848 271 
Q 434 634 434 1313 
Q 434 1759 690 2068 
Q 947 2378 1403 2484 
z
M 1172 3481 
Q 1172 3119 1398 2916 
Q 1625 2713 2034 2713 
Q 2441 2713 2670 2916 
Q 2900 3119 2900 3481 
Q 2900 3844 2670 4047 
Q 2441 4250 2034 4250 
Q 1625 4250 1398 4047 
Q 1172 3844 1172 3481 
z
" transform="scale(0.015625)"/>
       </defs>
       <use xlink:href="#DejaVuSans-38"/>
       <use xlink:href="#DejaVuSans-30" x="63.623047"/>
       <use xlink:href="#DejaVuSans-30" x="127.246094"/>
       <use xlink:href="#DejaVuSans-30" x="190.869141"/>
       <use xlink:href="#DejaVuSans-30" x="254.492188"/>
      </g>
     </g>
    </g>
    <g id="xtick_6">
     <g id="line2d_11">
      <path d="M 381.591326 307.584 
L 381.591326 41.472 
" clip-path="url(#pa347c4ff28)" style="fill: none; stroke: #b0b0b0; stroke-width: 0.8; stroke-linecap: square"/>
     </g>
     <g id="line2d_12">
      <g>
       <use xlink:href="#m5e186b98b8" x="381.591326" y="307.584" style="stroke: #000000; stroke-width: 0.8"/>
      </g>
     </g>
     <g id="text_6">
      <!-- 100000 -->
      <g transform="translate(362.503826 322.182437) scale(0.1 -0.1)">
       <defs>
        <path id="DejaVuSans-31" d="M 794 531 
L 1825 531 
L 1825 4091 
L 703 3866 
L 703 4441 
L 1819 4666 
L 2450 4666 
L 2450 531 
L 3481 531 
L 3481 0 
L 794 0 
L 794 531 
z
" transform="scale(0.015625)"/>
       </defs>
       <use xlink:href="#DejaVuSans-31"/>
       <use xlink:href="#DejaVuSans-30" x="63.623047"/>
       <use xlink:href="#DejaVuSans-30" x="127.246094"/>
       <use xlink:href="#DejaVuSans-30" x="190.869141"/>
       <use xlink:href="#DejaVuSans-30" x="254.492188"/>
       <use xlink:href="#DejaVuSans-30" x="318.115234"/>
      </g>
     </g>
    </g>
    <g id="text_7">
     <!-- Temps (ms) -->
     <g transform="translate(207.264687 335.860562) scale(0.1 -0.1)">
      <defs>
       <path id="DejaVuSans-54" d="M -19 4666 
L 3928 4666 
L 3928 4134 
L 2272 4134 
L 2272 0 
L 1638 0 
L 1638 4134 
L -19 4134 
L -19 4666 
z
" transform="scale(0.015625)"/>
       <path id="DejaVuSans-65" d="M 3597 1894 
L 3597 1613 
L 953 1613 
Q 991 1019 1311 708 
Q 1631 397 2203 397 
Q 2534 397 2845 478 
Q 3156 559 3463 722 
L 3463 178 
Q 3153 47 2828 -22 
Q 2503 -91 2169 -91 
Q 1331 -91 842 396 
Q 353 884 353 1716 
Q 353 2575 817 3079 
Q 1281 3584 2069 3584 
Q 2775 3584 3186 3129 
Q 3597 2675 3597 1894 
z
M 3022 2063 
Q 3016 2534 2758 2815 
Q 2500 3097 2075 3097 
Q 1594 3097 1305 2825 
Q 1016 2553 972 2059 
L 3022 2063 
z
" transform="scale(0.015625)"/>
       <path id="DejaVuSans-6d" d="M 3328 2828 
Q 3544 3216 3844 3400 
Q 4144 3584 4550 3584 
Q 5097 3584 5394 3201 
Q 5691 2819 5691 2113 
L 5691 0 
L 5113 0 
L 5113 2094 
Q 5113 2597 4934 2840 
Q 4756 3084 4391 3084 
Q 3944 3084 3684 2787 
Q 3425 2491 3425 1978 
L 3425 0 
L 2847 0 
L 2847 2094 
Q 2847 2600 2669 2842 
Q 2491 3084 2119 3084 
Q 1678 3084 1418 2786 
Q 1159 2488 1159 1978 
L 1159 0 
L 581 0 
L 581 3500 
L 1159 3500 
L 1159 2956 
Q 1356 3278 1631 3431 
Q 1906 3584 2284 3584 
Q 2666 3584 2933 3390 
Q 3200 3197 3328 2828 
z
" transform="scale(0.015625)"/>
       <path id="DejaVuSans-70" d="M 1159 525 
L 1159 -1331 
L 581 -1331 
L 581 3500 
L 1159 3500 
L 1159 2969 
Q 1341 3281 1617 3432 
Q 1894 3584 2278 3584 
Q 2916 3584 3314 3078 
Q 3713 2572 3713 1747 
Q 3713 922 3314 415 
Q 2916 -91 2278 -91 
Q 1894 -91 1617 61 
Q 1341 213 1159 525 
z
M 3116 1747 
Q 3116 2381 2855 2742 
Q 2594 3103 2138 3103 
Q 1681 3103 1420 2742 
Q 1159 2381 1159 1747 
Q 1159 1113 1420 752 
Q 1681 391 2138 391 
Q 2594 391 2855 752 
Q 3116 1113 3116 1747 
z
" transform="scale(0.015625)"/>
       <path id="DejaVuSans-73" d="M 2834 3397 
L 2834 2853 
Q 2591 2978 2328 3040 
Q 2066 3103 1784 3103 
Q 1356 3103 1142 2972 
Q 928 2841 928 2578 
Q 928 2378 1081 2264 
Q 1234 2150 1697 2047 
L 1894 2003 
Q 2506 1872 2764 1633 
Q 3022 1394 3022 966 
Q 3022 478 2636 193 
Q 2250 -91 1575 -91 
Q 1294 -91 989 -36 
Q 684 19 347 128 
L 347 722 
Q 666 556 975 473 
Q 1284 391 1588 391 
Q 1994 391 2212 530 
Q 2431 669 2431 922 
Q 2431 1156 2273 1281 
Q 2116 1406 1581 1522 
L 1381 1569 
Q 847 1681 609 1914 
Q 372 2147 372 2553 
Q 372 3047 722 3315 
Q 1072 3584 1716 3584 
Q 2034 3584 2315 3537 
Q 2597 3491 2834 3397 
z
" transform="scale(0.015625)"/>
       <path id="DejaVuSans-20" transform="scale(0.015625)"/>
       <path id="DejaVuSans-28" d="M 1984 4856 
Q 1566 4138 1362 3434 
Q 1159 2731 1159 2009 
Q 1159 1288 1364 580 
Q 1569 -128 1984 -844 
L 1484 -844 
Q 1016 -109 783 600 
Q 550 1309 550 2009 
Q 550 2706 781 3412 
Q 1013 4119 1484 4856 
L 1984 4856 
z
" transform="scale(0.015625)"/>
       <path id="DejaVuSans-29" d="M 513 4856 
L 1013 4856 
Q 1481 4119 1714 3412 
Q 1947 2706 1947 2009 
Q 1947 1309 1714 600 
Q 1481 -109 1013 -844 
L 513 -844 
Q 928 -128 1133 580 
Q 1338 1288 1338 2009 
Q 1338 2731 1133 3434 
Q 928 4138 513 4856 
z
" transform="scale(0.015625)"/>
      </defs>
      <use xlink:href="#DejaVuSans-54"/>
      <use xlink:href="#DejaVuSans-65" x="44.083984"/>
      <use xlink:href="#DejaVuSans-6d" x="105.607422"/>
      <use xlink:href="#DejaVuSans-70" x="203.019531"/>
      <use xlink:href="#DejaVuSans-73" x="266.496094"/>
      <use xlink:href="#DejaVuSans-20" x="318.595703"/>
      <use xlink:href="#DejaVuSans-28" x="350.382812"/>
      <use xlink:href="#DejaVuSans-6d" x="389.396484"/>
      <use xlink:href="#DejaVuSans-73" x="486.808594"/>
      <use xlink:href="#DejaVuSans-29" x="538.908203"/>
     </g>
    </g>
   </g>
   <g id="matplotlib.axis_2">
    <g id="ytick_1">
     <g id="line2d_13">
      <path d="M 57.6 276.696286 
L 414.72 276.696286 
" clip-path="url(#pa347c4ff28)" style="fill: none; stroke: #b0b0b0; stroke-width: 0.8; stroke-linecap: square"/>
     </g>
     <g id="line2d_14">
      <defs>
       <path id="mf016f4d339" d="M 0 0 
L -3.5 0 
" style="stroke: #000000; stroke-width: 0.8"/>
      </defs>
      <g>
       <use xlink:href="#mf016f4d339" x="57.6" y="276.696286" style="stroke: #000000; stroke-width: 0.8"/>
      </g>
     </g>
     <g id="text_8">
      <!-- −200 -->
      <g transform="translate(23.132812 280.495505) scale(0.1 -0.1)">
       <defs>
        <path id="DejaVuSans-2212" d="M 678 2272 
L 4684 2272 
L 4684 1741 
L 678 1741 
L 678 2272 
z
" transform="scale(0.015625)"/>
       </defs>
       <use xlink:href="#DejaVuSans-2212"/>
       <use xlink:href="#DejaVuSans-32" x="83.789062"/>
       <use xlink:href="#DejaVuSans-30" x="147.412109"/>
       <use xlink:href="#DejaVuSans-30" x="211.035156"/>
      </g>
     </g>
    </g>
    <g id="ytick_2">
     <g id="line2d_15">
      <path d="M 57.6 232.270528 
L 414.72 232.270528 
" clip-path="url(#pa347c4ff28)" style="fill: none; stroke: #b0b0b0; stroke-width: 0.8; stroke-linecap: square"/>
     </g>
     <g id="line2d_16">
      <g>
       <use xlink:href="#mf016f4d339" x="57.6" y="232.270528" style="stroke: #000000; stroke-width: 0.8"/>
      </g>
     </g>
     <g id="text_9">
      <!-- 0 -->
      <g transform="translate(44.2375 236.069746) scale(0.1 -0.1)">
       <use xlink:href="#DejaVuSans-30"/>
      </g>
     </g>
    </g>
    <g id="ytick_3">
     <g id="line2d_17">
      <path d="M 57.6 187.844769 
L 414.72 187.844769 
" clip-path="url(#pa347c4ff28)" style="fill: none; stroke: #b0b0b0; stroke-width: 0.8; stroke-linecap: square"/>
     </g>
     <g id="line2d_18">
      <g>
       <use xlink:href="#mf016f4d339" x="57.6" y="187.844769" style="stroke: #000000; stroke-width: 0.8"/>
      </g>
     </g>
     <g id="text_10">
      <!-- 200 -->
      <g transform="translate(31.5125 191.643988) scale(0.1 -0.1)">
       <use xlink:href="#DejaVuSans-32"/>
       <use xlink:href="#DejaVuSans-30" x="63.623047"/>
       <use xlink:href="#DejaVuSans-30" x="127.246094"/>
      </g>
     </g>
    </g>
    <g id="ytick_4">
     <g id="line2d_19">
      <path d="M 57.6 143.41901 
L 414.72 143.41901 
" clip-path="url(#pa347c4ff28)" style="fill: none; stroke: #b0b0b0; stroke-width: 0.8; stroke-linecap: square"/>
     </g>
     <g id="line2d_20">
      <g>
       <use xlink:href="#mf016f4d339" x="57.6" y="143.41901" style="stroke: #000000; stroke-width: 0.8"/>
      </g>
     </g>
     <g id="text_11">
      <!-- 400 -->
      <g transform="translate(31.5125 147.218229) scale(0.1 -0.1)">
       <use xlink:href="#DejaVuSans-34"/>
       <use xlink:href="#DejaVuSans-30" x="63.623047"/>
       <use xlink:href="#DejaVuSans-30" x="127.246094"/>
      </g>
     </g>
    </g>
    <g id="ytick_5">
     <g id="line2d_21">
      <path d="M 57.6 98.993252 
L 414.72 98.993252 
" clip-path="url(#pa347c4ff28)" style="fill: none; stroke: #b0b0b0; stroke-width: 0.8; stroke-linecap: square"/>
     </g>
     <g id="line2d_22">
      <g>
       <use xlink:href="#mf016f4d339" x="57.6" y="98.993252" style="stroke: #000000; stroke-width: 0.8"/>
      </g>
     </g>
     <g id="text_12">
      <!-- 600 -->
      <g transform="translate(31.5125 102.79247) scale(0.1 -0.1)">
       <use xlink:href="#DejaVuSans-36"/>
       <use xlink:href="#DejaVuSans-30" x="63.623047"/>
       <use xlink:href="#DejaVuSans-30" x="127.246094"/>
      </g>
     </g>
    </g>
    <g id="ytick_6">
     <g id="line2d_23">
      <path d="M 57.6 54.567493 
L 414.72 54.567493 
" clip-path="url(#pa347c4ff28)" style="fill: none; stroke: #b0b0b0; stroke-width: 0.8; stroke-linecap: square"/>
     </g>
     <g id="line2d_24">
      <g>
       <use xlink:href="#mf016f4d339" x="57.6" y="54.567493" style="stroke: #000000; stroke-width: 0.8"/>
      </g>
     </g>
     <g id="text_13">
      <!-- 800 -->
      <g transform="translate(31.5125 58.366712) scale(0.1 -0.1)">
       <use xlink:href="#DejaVuSans-38"/>
       <use xlink:href="#DejaVuSans-30" x="63.623047"/>
       <use xlink:href="#DejaVuSans-30" x="127.246094"/>
      </g>
     </g>
    </g>
    <g id="text_14">
     <!-- Vitesse (m.s-1) -->
     <g transform="translate(17.053125 212.087375) rotate(-90) scale(0.1 -0.1)">
      <defs>
       <path id="DejaVuSans-56" d="M 1831 0 
L 50 4666 
L 709 4666 
L 2188 738 
L 3669 4666 
L 4325 4666 
L 2547 0 
L 1831 0 
z
" transform="scale(0.015625)"/>
       <path id="DejaVuSans-69" d="M 603 3500 
L 1178 3500 
L 1178 0 
L 603 0 
L 603 3500 
z
M 603 4863 
L 1178 4863 
L 1178 4134 
L 603 4134 
L 603 4863 
z
" transform="scale(0.015625)"/>
       <path id="DejaVuSans-74" d="M 1172 4494 
L 1172 3500 
L 2356 3500 
L 2356 3053 
L 1172 3053 
L 1172 1153 
Q 1172 725 1289 603 
Q 1406 481 1766 481 
L 2356 481 
L 2356 0 
L 1766 0 
Q 1100 0 847 248 
Q 594 497 594 1153 
L 594 3053 
L 172 3053 
L 172 3500 
L 594 3500 
L 594 4494 
L 1172 4494 
z
" transform="scale(0.015625)"/>
       <path id="DejaVuSans-2e" d="M 684 794 
L 1344 794 
L 1344 0 
L 684 0 
L 684 794 
z
" transform="scale(0.015625)"/>
       <path id="DejaVuSans-2d" d="M 313 2009 
L 1997 2009 
L 1997 1497 
L 313 1497 
L 313 2009 
z
" transform="scale(0.015625)"/>
      </defs>
      <use xlink:href="#DejaVuSans-56"/>
      <use xlink:href="#DejaVuSans-69" x="66.158203"/>
      <use xlink:href="#DejaVuSans-74" x="93.941406"/>
      <use xlink:href="#DejaVuSans-65" x="133.150391"/>
      <use xlink:href="#DejaVuSans-73" x="194.673828"/>
      <use xlink:href="#DejaVuSans-73" x="246.773438"/>
      <use xlink:href="#DejaVuSans-65" x="298.873047"/>
      <use xlink:href="#DejaVuSans-20" x="360.396484"/>
      <use xlink:href="#DejaVuSans-28" x="392.183594"/>
      <use xlink:href="#DejaVuSans-6d" x="431.197266"/>
      <use xlink:href="#DejaVuSans-2e" x="528.609375"/>
      <use xlink:href="#DejaVuSans-73" x="560.396484"/>
      <use xlink:href="#DejaVuSans-2d" x="612.496094"/>
      <use xlink:href="#DejaVuSans-31" x="648.580078"/>
      <use xlink:href="#DejaVuSans-29" x="712.203125"/>
     </g>
    </g>
   </g>
   <g id="line2d_25">
    <path d="M 73.832727 232.270528 
L 74.789857 232.440263 
L 74.848331 232.505711 
L 74.879107 232.463795 
L 75.032986 232.383273 
L 75.094538 232.5831 
L 75.156089 232.438339 
L 75.297658 232.261414 
L 75.316124 232.295652 
L 75.451538 232.276634 
L 75.5254 232.238623 
L 75.679279 232.212256 
L 75.956262 232.15018 
L 75.987037 232.188964 
L 76.048589 232.123058 
L 76.171693 232.064083 
L 76.356348 231.892977 
L 76.571779 231.929606 
L 76.694882 231.703186 
L 76.756434 231.789772 
L 76.78721 231.808986 
L 76.817986 231.739326 
L 76.941089 231.478703 
L 77.002641 231.512244 
L 77.033417 231.553805 
L 77.113434 231.489183 
L 77.15652 231.571864 
L 77.402727 231.63928 
L 77.52583 231.57313 
L 77.587382 231.614112 
L 77.618158 231.544853 
L 77.864365 231.309063 
L 78.202899 231.325174 
L 78.356779 231.5808 
L 78.449106 231.45703 
L 78.602986 231.241254 
L 78.916899 231.471615 
L 79.033848 231.224034 
L 79.064623 231.260064 
L 79.249279 231.058415 
L 79.344684 231.207601 
L 79.403158 231.162645 
L 79.526261 231.004111 
L 79.557037 231.07306 
L 79.618589 231.039807 
L 79.772468 230.883584 
L 79.803244 230.948446 
L 79.895572 230.992361 
L 79.926348 231.04234 
L 79.957123 231.006821 
L 80.080227 230.827452 
L 80.20333 230.856507 
L 80.295658 230.901734 
L 80.326434 231.009245 
L 80.387985 230.928878 
L 80.418761 230.843514 
L 80.480313 230.924636 
L 80.634192 231.120309 
L 80.818847 230.777738 
L 81.003503 231.031964 
L 81.034278 230.976721 
L 81.157382 230.849841 
L 81.188158 230.942224 
L 81.218934 231.023057 
L 81.280485 230.880095 
L 81.311261 230.761078 
L 81.342037 230.862791 
L 81.372813 230.982252 
L 81.434365 230.929962 
L 81.465141 230.873209 
L 81.526692 230.968991 
L 81.585166 230.966711 
L 81.711347 230.841708 
L 81.834451 230.597744 
L 81.896003 230.734731 
L 81.957554 230.777069 
L 81.98833 230.725002 
L 82.019106 230.628287 
L 82.080658 230.785617 
L 82.142209 230.881487 
L 82.326865 231.355066 
L 82.388416 231.263882 
L 82.560761 231.143804 
L 82.579227 231.196328 
L 82.634623 231.113861 
L 82.788502 230.973986 
L 83.065485 230.214572 
L 83.311692 229.684195 
L 83.434796 229.935849 
L 83.465571 229.917102 
L 83.650227 229.464203 
L 83.77333 229.570092 
L 83.804106 229.551967 
L 83.927209 229.487438 
L 84.019537 229.69866 
L 84.081089 229.595593 
L 84.364227 229.520366 
L 84.481175 229.657627 
L 84.573502 229.613156 
L 84.635054 229.707916 
L 84.66583 229.666912 
L 84.696606 229.613934 
L 84.727382 229.634814 
L 84.758158 229.778287 
L 84.819709 229.597949 
L 84.850485 229.561165 
L 84.881261 229.660101 
L 84.912037 229.714412 
L 84.942813 229.600348 
L 84.973589 229.504655 
L 85.065916 229.564874 
L 85.404451 229.848622 
L 85.435226 229.777985 
L 85.712209 229.483484 
L 85.866088 229.513672 
L 86.173847 229.658699 
L 86.192313 229.626606 
L 86.327726 229.480343 
L 86.573933 229.698629 
L 86.789364 229.70576 
L 86.943244 229.681237 
L 87.558761 229.734123 
L 87.8142 229.660992 
L 88.051175 229.671072 
L 88.23583 229.733997 
L 88.451261 229.639103 
L 88.851347 229.664826 
L 89.066778 229.690273 
L 89.343761 229.559705 
L 89.466864 229.478939 
L 89.774623 229.319295 
L 91.313416 229.456522 
L 91.405743 229.397569 
L 91.436519 229.419649 
L 91.65195 229.380265 
L 91.836605 229.372704 
L 92.082812 229.420217 
L 92.236691 229.389541 
L 92.513674 229.455181 
L 92.759881 229.512108 
L 93.498502 229.421279 
L 93.837036 229.473973 
L 94.206346 229.447577 
L 94.483329 229.443135 
L 95.529708 229.409822 
L 95.714364 229.462733 
L 95.837467 229.446406 
L 96.022122 229.555425 
L 96.145226 229.54654 
L 96.791519 229.450602 
L 96.976174 229.329558 
L 97.130053 229.468899 
L 97.160829 229.418276 
L 97.351639 229.407032 
L 97.622467 229.278308 
L 97.776346 229.346857 
L 97.89945 229.239502 
L 97.930226 229.261604 
L 98.145657 229.114177 
L 98.176432 229.191078 
L 98.453415 229.129227 
L 98.822725 229.183937 
L 99.068932 229.160191 
L 99.284363 229.235937 
L 99.592122 229.252468 
L 99.715225 229.258421 
L 100.299967 229.111307 
L 100.915484 229.244696 
L 101.254018 229.235269 
L 101.654105 229.266027 
L 101.777208 229.197367 
L 101.807984 229.146299 
L 101.869536 229.185683 
L 101.961863 229.303478 
L 102.023415 229.239682 
L 102.57738 229.092231 
L 102.73126 229.153272 
L 102.915915 229.159945 
L 103.069794 229.222952 
L 103.592984 229.31147 
L 103.746863 229.272982 
L 104.454708 229.365143 
L 104.88557 229.291503 
L 105.347208 229.319766 
L 105.62419 229.376831 
L 105.901173 229.339603 
L 106.14738 229.307563 
L 106.332035 229.287618 
L 106.886001 229.235751 
L 107.009104 229.247126 
L 107.132208 229.231488 
L 107.286087 229.25741 
L 107.501518 229.153232 
L 107.716949 229.180665 
L 107.901604 229.179154 
L 108.147811 229.146388 
L 108.443259 229.05189 
L 108.578673 229.039433 
L 109.224966 229.063912 
L 109.409621 228.990176 
L 109.871259 229.060413 
L 110.055914 229.053283 
L 110.209794 229.06821 
L 110.732983 229.004348 
L 111.133069 229.126554 
L 111.317725 229.089237 
L 111.533156 229.093568 
L 111.840914 229.099215 
L 112.087121 229.036463 
L 112.456431 229.074341 
L 113.533586 229.056048 
L 114.980052 229.074658 
L 115.564793 229.11133 
L 115.934104 229.151468 
L 117.042034 229.12635 
L 117.257466 229.1122 
L 117.842207 229.073086 
L 119.196345 229.067764 
L 120.858241 229.126803 
L 123.166431 229.139285 
L 124.182034 229.134562 
L 126.613327 229.141119 
L 128.090568 229.103304 
L 128.829189 229.134269 
L 128.890741 229.53861 
L 128.952292 229.519818 
L 129.290827 229.906477 
L 129.321603 229.774333 
L 129.41393 229.661358 
L 129.444706 229.724576 
L 129.537034 229.711359 
L 129.814016 229.785577 
L 130.060223 229.678022 
L 130.244878 229.288342 
L 130.367982 229.255911 
L 130.614189 229.013109 
L 130.860396 228.868618 
L 131.845223 228.036977 
L 132.429964 227.688533 
L 133.014706 227.527489 
L 133.537895 227.559971 
L 133.999533 227.587128 
L 134.584275 227.474309 
L 135.045912 227.687784 
L 135.415223 227.80816 
L 135.66143 227.848832 
L 136.276947 227.701334 
L 137.141749 227.846246 
L 137.415654 227.784992 
L 137.723412 227.879996 
L 138.123498 227.85841 
L 140.000826 227.292392 
L 140.431688 227.378116 
L 142.801429 227.168967 
L 143.635455 227.349959 
L 144.657214 226.9791 
L 145.078843 226.860632 
L 146.186774 226.919629 
L 146.986946 226.899846 
L 147.233153 226.917794 
L 147.510136 226.920404 
L 147.940998 226.853433 
L 149.756773 226.844199 
L 150.279963 226.818965 
L 152.403497 226.306609 
L 154.311601 226.086462 
L 155.265652 225.934995 
L 157.543066 225.781073 
L 158.220135 225.472809 
L 158.7741 225.293307 
L 159.481945 225.236933 
L 160.343669 225.275507 
L 161.143842 225.213822 
L 164.836945 224.660235 
L 165.54479 224.537531 
L 166.160307 224.555661 
L 166.868152 224.341418 
L 168.468496 223.978198 
L 169.453324 223.962342 
L 170.622806 223.882873 
L 172.315479 223.601958 
L 173.177203 223.513206 
L 174.100479 223.223164 
L 174.623668 223.065053 
L 175.146858 223.035176 
L 176.254789 222.914589 
L 178.285996 222.493689 
L 179.363151 222.302527 
L 182.56384 221.471079 
L 183.610219 221.461956 
L 184.564271 221.471992 
L 185.302892 221.44897 
L 186.287719 221.303072 
L 188.534357 220.817534 
L 189.242202 220.527422 
L 190.103926 220.400385 
L 191.088753 220.249868 
L 191.919701 219.97659 
L 192.452124 219.843808 
L 193.677003 219.625191 
L 195.305046 219.232034 
L 197.613236 219.186082 
L 198.197977 218.930745 
L 198.875046 218.67374 
L 199.398235 218.645663 
L 199.798322 218.602876 
L 201.060132 218.427494 
L 205.768838 218.135424 
L 206.569011 217.915165 
L 210.046683 217.534075 
L 211.585476 217.175179 
L 212.601079 217.097367 
L 213.093493 217.003185 
L 214.786165 216.548023 
L 220.510475 215.841347 
L 222.080044 215.719636 
L 223.187975 215.331894 
L 223.834268 215.253954 
L 224.357458 215.276211 
L 231.066595 214.107085 
L 231.343578 214.081407 
L 232.420733 213.896514 
L 233.251681 213.795836 
L 234.575043 213.509801 
L 235.405991 213.257587 
L 237.683405 212.644465 
L 238.02194 212.56281 
L 241.499612 212.190131 
L 243.623146 211.858311 
L 245.315818 211.576001 
L 246.423749 211.459614 
L 246.946939 211.388355 
L 247.654784 211.141592 
L 248.731939 210.77091 
L 249.901421 210.408063 
L 250.547714 210.115053 
L 251.680266 210.212756 
L 253.502197 210.003102 
L 253.929981 209.760504 
L 254.610128 209.501609 
L 254.794783 209.545568 
L 255.194869 209.630266 
L 255.718059 209.687917 
L 256.210473 209.659422 
L 256.702886 209.491604 
L 257.872369 208.966545 
L 258.36786 208.838059 
L 259.995903 208.505421 
L 262.611852 208.104643 
L 263.596679 208.027673 
L 264.766162 207.853624 
L 266.520386 207.33185 
L 267.289782 207.170867 
L 268.336161 206.874858 
L 271.198316 206.744362 
L 271.783058 206.722335 
L 272.521678 206.537484 
L 272.983316 206.282389 
L 273.383402 206.103114 
L 273.99892 205.929987 
L 275.106851 205.559547 
L 276.460988 205.543673 
L 277.476592 205.535688 
L 278.984609 205.224079 
L 279.477023 205.148266 
L 279.938661 205.286644 
L 280.246419 205.314876 
L 281.692885 204.823818 
L 284.616591 204.701246 
L 285.478315 204.108171 
L 285.847626 204.173188 
L 286.524695 204.642444 
L 286.832453 204.782074 
L 287.07866 204.692611 
L 288.217367 204.367124 
L 289.171419 204.424826 
L 289.602281 204.540151 
L 289.977746 204.4617 
L 290.710212 203.995389 
L 291.233401 203.574246 
L 291.418056 203.649937 
L 292.033574 203.954853 
L 292.43366 203.886482 
L 292.80297 203.81674 
L 293.778565 203.597721 
L 294.58797 203.42562 
L 295.757453 203.522413 
L 296.095987 203.372986 
L 297.234694 203.099368 
L 304.562426 202.721916 
L 310.222107 201.873846 
L 313.207365 201.754598 
L 313.976762 201.496729 
L 314.407624 201.411949 
L 315.638658 201.162139 
L 316.500382 200.709944 
L 316.900468 200.738048 
L 317.300554 200.766214 
L 318.408485 200.80697 
L 319.331761 200.652213 
L 319.762623 200.904929 
L 320.193485 201.105602 
L 320.501244 201.06832 
L 321.735356 200.43705 
L 322.963313 200.934268 
L 323.240295 200.870586 
L 324.655985 200.399826 
L 326.810295 200.173861 
L 327.702795 199.766081 
L 328.472192 199.250609 
L 328.872278 199.015397 
L 331.642105 197.202022 
L 331.98064 197.121656 
L 332.380726 196.888516 
L 332.811588 196.695486 
L 337.058656 195.501644 
L 338.843656 194.506813 
L 339.766932 194.07882 
L 340.22857 193.755445 
L 342.629087 192.820409 
L 344.198656 192.880209 
L 344.937277 192.756061 
L 346.599173 192.542913 
L 347.553225 192.173128 
L 347.953311 192.029929 
L 348.633457 191.819553 
L 349.030466 191.636841 
L 349.769087 191.635694 
L 350.2615 191.519637 
L 350.846242 191.379784 
L 351.338655 191.585051 
L 351.67719 191.57456 
L 352.231155 191.378798 
L 352.785121 191.66105 
L 353.339086 191.895199 
L 353.769948 191.778281 
L 354.139259 191.669371 
L 354.754776 191.89355 
L 355.277966 192.01792 
L 355.554948 191.883088 
L 355.955034 191.648447 
L 356.509 191.448175 
L 356.970638 191.266205 
L 357.678483 191.229385 
L 358.047793 191.076094 
L 358.447879 191.134323 
L 358.940293 191.217459 
L 359.494258 191.051869 
L 359.98975 191.038177 
L 361.466991 191.14993 
L 361.864 191.035922 
L 364.049086 190.757917 
L 364.510723 190.673819 
L 366.480378 189.980184 
L 366.972792 189.825338 
L 367.465206 189.544694 
L 367.988396 189.366169 
L 368.265378 189.220119 
L 368.727016 189.405484 
L 369.127102 189.522257 
L 369.927275 189.385905 
L 371.52762 189.51589 
L 372.327792 189.54977 
L 373.68193 189.284814 
L 374.635981 188.784985 
L 376.759516 187.69248 
L 378.021326 187.427513 
L 379.221584 187.285775 
L 381.745205 186.13712 
L 382.114515 185.943091 
L 382.45305 185.786668 
L 382.82236 185.585839 
L 383.376326 185.740396 
L 385.684515 185.927147 
L 386.700118 185.850521 
L 386.946325 185.947007 
L 389.306834 185.682254 
L 389.931584 185.662935 
L 391.101066 185.773829 
L 392.547532 184.992589 
L 393.070721 185.159798 
L 393.717014 185.430884 
L 394.150954 185.404315 
L 395.498937 185.009146 
L 395.563566 184.700145 
L 395.594342 185.048443 
L 395.655894 185.227612 
L 395.717445 185.091558 
L 395.809773 185.080007 
L 396.05598 185.198806 
L 396.7946 184.95402 
L 397.133135 184.237615 
L 397.31779 184.20996 
L 397.871756 183.888533 
L 398.487273 183.523766 
L 398.487273 183.523766 
" clip-path="url(#pa347c4ff28)" style="fill: none; stroke: #1f77b4; stroke-width: 1.5; stroke-linecap: square"/>
   </g>
   <g id="line2d_26">
    <path d="M 73.832727 232.270528 
L 74.725227 231.648254 
L 77.310399 203.6429 
L 78.57221 191.268082 
L 79.126175 187.308192 
L 79.372382 185.796146 
L 79.495485 185.862829 
L 79.618589 185.546362 
L 79.710917 185.697254 
L 79.680141 185.467507 
L 79.741692 185.653073 
L 79.864796 185.51291 
L 80.141779 185.126561 
L 80.20333 185.240291 
L 80.264882 184.865609 
L 80.326434 185.482838 
L 80.387985 185.081895 
L 80.634192 185.737353 
L 80.788072 185.122838 
L 80.818847 185.212778 
L 80.849623 185.258226 
L 81.09583 184.468247 
L 81.157382 184.485662 
L 81.218934 184.959418 
L 81.249709 184.69062 
L 81.311261 184.343211 
L 81.342037 184.691508 
L 81.403589 184.904685 
L 81.465141 184.412737 
L 81.495916 184.6856 
L 81.680572 185.660847 
L 81.803675 184.848323 
L 81.834451 185.153594 
L 81.896003 185.590166 
L 81.957554 185.436764 
L 82.052959 184.98989 
L 82.080658 185.25106 
L 82.203761 185.892612 
L 82.234537 185.760379 
L 82.265313 185.755181 
L 83.311692 179.665849 
L 83.465571 180.214247 
L 83.496347 180.054759 
L 83.557899 179.862684 
L 83.619451 179.497127 
L 83.681002 179.723853 
L 83.77333 180.442729 
L 83.834882 180.176663 
L 83.927209 179.542419 
L 83.988761 179.864394 
L 84.019537 180.125573 
L 84.081089 180.079148 
L 84.111864 179.924591 
L 84.173416 180.108225 
L 84.204192 180.326711 
L 84.265744 180.182749 
L 84.39808 179.87206 
L 84.419623 180.017412 
L 84.450399 179.99189 
L 84.511951 180.259488 
L 84.542726 180.094224 
L 84.573502 179.960814 
L 84.604278 180.152 
L 84.635054 180.198558 
L 84.66583 180.086472 
L 84.696606 179.929605 
L 84.727382 180.079919 
L 84.792011 180.290755 
L 84.819709 180.094757 
L 84.850485 179.890688 
L 84.912037 180.194715 
L 85.004364 179.976696 
L 85.158244 180.36009 
L 85.312123 180.12199 
L 85.404451 180.306935 
L 85.435226 180.187607 
L 85.496778 180.302004 
L 85.55833 180.127322 
L 85.589106 180.153866 
L 85.712209 180.022932 
L 85.804537 180.027464 
L 86.173847 180.584185 
L 86.192313 180.541456 
L 86.266175 180.487563 
L 86.45083 181.026803 
L 86.481606 180.884241 
L 86.543157 180.917627 
L 86.697037 181.102571 
L 86.727813 181.065609 
L 86.758588 181.153328 
L 87.251002 181.421473 
L 87.374106 181.372782 
L 87.558761 181.595466 
L 87.620312 181.537579 
L 87.681864 181.584093 
L 87.897295 181.558822 
L 88.051175 181.494138 
L 88.174278 181.656892 
L 88.328157 181.820014 
L 88.420485 181.728253 
L 88.60514 181.701975 
L 88.912899 181.991697 
L 89.12833 182.125041 
L 89.343761 182.19961 
L 89.436088 182.256297 
L 89.651519 182.366806 
L 90.359364 182.835518 
L 90.574795 182.955357 
L 90.728674 182.941873 
L 91.036433 183.008245 
L 91.190312 182.979724 
L 91.467295 183.191144 
L 91.65195 183.266068 
L 91.990485 183.476011 
L 92.113588 183.52519 
L 94.206346 184.507348 
L 94.391002 184.495864 
L 94.667984 184.628864 
L 94.883415 184.66878 
L 95.037295 184.748924 
L 95.191174 184.81252 
L 99.776777 186.244209 
L 100.176863 186.287275 
L 100.330743 186.352981 
L 100.546174 186.35689 
L 100.823156 186.391609 
L 101.161691 186.438096 
L 101.561777 186.397675 
L 101.807984 186.427063 
L 102.023415 186.458694 
L 102.423501 186.549076 
L 104.393156 187.100353 
L 104.639363 187.131984 
L 105.193328 187.180726 
L 105.531863 187.231527 
L 106.270484 187.286759 
L 106.609018 187.339652 
L 107.624621 187.370728 
L 108.763328 187.470344 
L 110.856087 187.641945 
L 111.533156 187.738016 
L 117.442121 188.364992 
L 117.565224 188.341202 
L 117.811431 188.3213 
L 118.088414 188.356229 
L 118.537741 188.445352 
L 119.719534 188.496608 
L 120.11962 188.498392 
L 122.366258 188.541514 
L 123.200284 188.54499 
L 123.8435 188.57388 
L 125.720827 188.637678 
L 126.36712 188.662838 
L 126.982637 188.682763 
L 129.136947 188.871666 
L 129.321603 189.33918 
L 129.635516 190.10851 
L 130.060223 191.755684 
L 130.090999 191.718033 
L 130.152551 191.789714 
L 130.244878 191.931255 
L 130.460309 192.181771 
L 130.67574 192.337946 
L 131.014275 192.552153 
L 132.122206 192.819321 
L 132.645395 192.612408 
L 134.368844 191.842267 
L 135.692206 192.073766 
L 136.184619 192.238752 
L 137.08943 191.993744 
L 137.569533 191.702426 
L 138.585136 191.171538 
L 141.693498 189.950377 
L 142.832205 189.148803 
L 143.447722 188.957523 
L 144.555653 188.467263 
L 145.017291 188.047126 
L 146.186774 187.377685 
L 146.95617 186.945814 
L 147.356256 186.633167 
L 147.602463 186.481367 
L 148.525739 185.848866 
L 150.89548 184.631158 
L 151.110911 184.47127 
L 151.357118 184.27071 
L 154.434704 182.649416 
L 155.758066 181.670022 
L 157.992394 180.618977 
L 158.374014 180.308357 
L 159.266514 179.813973 
L 159.543497 179.51963 
L 159.789704 179.401147 
L 160.589876 178.956849 
L 160.959186 178.721415 
L 162.282548 177.767949 
L 163.178126 176.941417 
L 164.898497 176.115062 
L 165.237031 175.892823 
L 167.052807 174.797414 
L 167.452893 174.626175 
L 168.837807 173.519003 
L 170.130393 172.950516 
L 171.361427 172.392773 
L 172.438582 171.969979 
L 173.638841 171.316539 
L 174.16203 170.98179 
L 174.777548 170.508778 
L 175.731599 170.120448 
L 176.377892 169.60809 
L 176.624099 169.439472 
L 177.024185 169.09384 
L 177.73203 168.507618 
L 181.486685 166.411431 
L 181.702116 166.202008 
L 182.102202 165.890881 
L 182.656168 165.640186 
L 183.333237 165.406855 
L 183.948754 164.734638 
L 184.779702 164.248236 
L 185.856857 163.861514 
L 186.995564 163.29198 
L 187.580305 163.071962 
L 187.860366 162.923662 
L 188.195822 162.724612 
L 188.411253 162.609261 
L 188.934443 162.264835 
L 189.18065 162.043594 
L 189.580736 161.788619 
L 190.134702 161.551808 
L 191.181081 160.951589 
L 191.765822 160.402382 
L 191.981253 160.114726 
L 192.196684 159.918142 
L 192.738339 159.400901 
L 193.335391 159.176938 
L 194.443322 158.573398 
L 194.874184 158.200924 
L 196.012891 157.280202 
L 197.028494 156.966754 
L 198.044098 156.512219 
L 198.47496 156.198195 
L 198.813494 155.884554 
L 199.767546 155.155882 
L 201.583321 153.756689 
L 204.537804 152.605286 
L 204.845563 152.300777 
L 205.614959 151.590969 
L 205.768838 151.488723 
L 210.139011 148.064958 
L 211.154614 147.695149 
L 212.939614 146.987043 
L 215.001596 145.756954 
L 215.770993 145.227772 
L 216.786596 144.294027 
L 218.079182 143.487786 
L 219.187113 142.669568 
L 220.387372 141.810622 
L 221.556855 141.474886 
L 222.049268 141.027554 
L 222.572458 140.589916 
L 223.289535 140.242333 
L 224.080475 139.759474 
L 225.065303 139.266044 
L 225.52694 139.094998 
L 226.053208 138.58178 
L 226.265561 138.367773 
L 226.911854 138.116811 
L 227.588923 137.810785 
L 228.512199 137.300801 
L 229.743233 136.389534 
L 231.528233 135.230401 
L 233.528664 134.069498 
L 233.805647 133.896504 
L 235.464466 133.29675 
L 237.621853 132.179531 
L 239.068319 131.356979 
L 239.960819 130.590635 
L 241.868922 129.580171 
L 242.33056 129.055263 
L 243.315387 128.317047 
L 243.530818 128.098072 
L 244.11556 127.621886 
L 244.269439 127.52908 
L 244.977284 127.100905 
L 246.485301 126.529636 
L 246.916163 126.379702 
L 249.039697 125.839013 
L 250.609266 125.286535 
L 250.978577 125.099613 
L 251.378663 124.748543 
L 251.809525 124.551635 
L 253.597602 123.754503 
L 254.887111 122.982266 
L 255.225645 122.856119 
L 257.995473 121.646228 
L 258.703317 121.066472 
L 261.596248 119.052999 
L 261.904007 118.709166 
L 262.5503 118.261576 
L 263.473576 117.913616 
L 266.027972 116.178754 
L 266.31111 116.03545 
L 267.566765 115.452171 
L 267.936075 115.113491 
L 269.136334 114.257671 
L 269.751851 113.795443 
L 271.198316 113.348805 
L 273.10642 112.675417 
L 273.814265 112.315117 
L 274.152799 112.08911 
L 274.583661 111.923669 
L 275.691592 111.471317 
L 278.122885 109.875779 
L 278.553747 109.654521 
L 280.030988 108.82644 
L 280.584954 108.331253 
L 280.738833 108.271589 
L 281.662109 107.632249 
L 283.416333 107.132284 
L 284.40116 106.796054 
L 284.585815 106.73679 
L 285.847626 106.477546 
L 286.924781 106.244268 
L 287.201764 106.01688 
L 287.940384 105.77256 
L 292.587539 103.690434 
L 294.341763 102.298604 
L 294.526418 102.113415 
L 295.542022 101.713576 
L 296.803832 100.815516 
L 297.050039 100.657427 
L 297.594771 100.449395 
L 298.650383 99.751539 
L 299.019694 99.432878 
L 300.435383 98.396716 
L 301.303263 97.76177 
L 301.912625 97.425511 
L 302.343487 97.069327 
L 303.482193 96.230845 
L 303.943831 95.925975 
L 304.374693 95.656111 
L 305.113314 95.129101 
L 306.867538 94.181353 
L 307.206072 93.96472 
L 307.66771 93.698756 
L 308.129348 93.348726 
L 308.843348 92.745966 
L 309.237279 92.409969 
L 311.453141 91.397651 
L 312.099434 90.792727 
L 312.745727 90.466742 
L 313.638227 90.166375 
L 314.222968 89.818726 
L 315.552486 89.322195 
L 318.008399 87.844152 
L 318.254606 87.763053 
L 319.085554 87.527401 
L 321.547623 86.990154 
L 321.947709 87.084423 
L 323.486502 86.728963 
L 323.640382 86.909843 
L 324.194347 86.443575 
L 325.302278 85.715172 
L 326.410209 85.348091 
L 328.164433 84.667317 
L 329.026157 84.397608 
L 332.534605 83.633299 
L 333.519433 82.877232 
L 334.904346 81.722831 
L 336.135381 81.287097 
L 337.723415 80.396938 
L 338.44357 80.096544 
L 338.905208 79.979651 
L 339.397622 79.843997 
L 339.982363 79.54206 
L 340.505553 79.362739 
L 341.675035 78.888152 
L 342.105897 78.523499 
L 342.659863 78.315431 
L 343.27538 78.026353 
L 344.414087 76.938352 
L 344.814173 76.691479 
L 345.34044 76.537083 
L 346.445294 76.040192 
L 346.937707 75.77988 
L 349.584431 74.601773 
L 355.585724 73.054486 
L 356.262793 72.673582 
L 356.970638 72.441026 
L 357.339948 72.235884 
L 357.924689 71.891673 
L 358.940293 71.314442 
L 359.617362 70.803357 
L 360.571413 70.302992 
L 361.556241 69.540209 
L 363.187361 68.213818 
L 364.510723 67.797744 
L 365.587879 67.423175 
L 366.788137 67.120613 
L 367.311327 66.948528 
L 368.665465 66.591007 
L 370.973654 65.335688 
L 371.250637 65.130463 
L 372.204688 64.41823 
L 372.915611 63.868019 
L 373.312619 63.643033 
L 373.68193 63.50267 
L 377.375033 61.801142 
L 380.575722 60.312859 
L 381.314343 60.120097 
L 381.591326 60.014431 
L 384.053394 58.927695 
L 384.576584 58.579788 
L 385.622963 58.071373 
L 386.423136 57.46527 
L 387.438739 56.754955 
L 388.269687 56.533693 
L 388.823653 56.180277 
L 391.162618 55.344462 
L 391.839687 55.182752 
L 393.90167 54.771127 
L 394.455635 54.41169 
L 395.498937 54.055444 
L 395.542023 53.568 
L 395.625118 53.687321 
L 395.778997 53.939082 
L 395.932876 53.828462 
L 396.825376 53.881179 
L 396.917704 54.109705 
L 396.94848 54.057883 
L 397.133135 54.258969 
L 397.31779 54.295798 
L 398.456497 54.345706 
L 398.487273 54.345351 
L 398.487273 54.345351 
" clip-path="url(#pa347c4ff28)" style="fill: none; stroke: #ff7f0e; stroke-width: 1.5; stroke-linecap: square"/>
   </g>
   <g id="line2d_27">
    <path d="M 73.832727 232.270528 
L 74.940658 232.091283 
L 74.971434 231.905006 
L 75.00221 232.097569 
L 75.032986 232.240887 
L 75.125313 232.219429 
L 75.297658 232.256018 
L 75.316124 232.275157 
L 75.340744 232.158921 
L 75.497701 232.159719 
L 75.925486 232.154798 
L 76.048589 232.175545 
L 76.171693 232.193893 
L 76.294796 232.023942 
L 76.448675 232.29394 
L 76.510227 232.218127 
L 76.725658 231.486484 
L 76.756434 231.499945 
L 76.817986 231.833049 
L 76.848762 231.582244 
L 76.879537 231.429997 
L 76.910313 231.706814 
L 76.971865 231.456341 
L 77.002641 231.477199 
L 77.033417 231.331927 
L 77.15652 231.850442 
L 77.187296 231.664365 
L 77.433503 232.006954 
L 77.587382 231.964239 
L 77.741261 232.077991 
L 77.833589 232.157224 
L 77.864365 232.203183 
L 77.895141 232.157113 
L 78.018244 232.041184 
L 78.172124 232.176349 
L 78.326003 231.871789 
L 78.356779 231.951755 
L 78.756865 233.012509 
L 78.818417 232.913151 
L 78.916899 232.698001 
L 78.972296 232.759446 
L 79.064623 232.703625 
L 79.095399 232.745919 
L 79.218503 232.789922 
L 79.372382 232.625078 
L 79.403158 232.697826 
L 79.495485 232.696759 
L 79.618589 233.037616 
L 79.680141 232.947854 
L 79.926348 233.086329 
L 80.141779 232.963647 
L 80.295658 233.121334 
L 80.449537 232.958092 
L 80.603416 233.074709 
L 80.634192 233.004028 
L 80.71421 233.093399 
L 80.732675 233.057774 
L 80.757296 233.128855 
L 80.788072 233.106087 
L 80.818847 233.209333 
L 80.849623 233.17237 
L 81.034278 232.695971 
L 81.188158 233.041781 
L 81.218934 232.967012 
L 81.280485 232.82716 
L 81.311261 232.903861 
L 81.342037 232.988359 
L 81.372813 232.890422 
L 81.434365 232.670559 
L 81.465141 232.732889 
L 81.585166 233.010787 
L 81.622097 232.998366 
L 81.659028 232.916534 
L 81.742123 232.965269 
L 81.803675 233.039993 
L 81.834451 233.156277 
L 81.896003 233.026043 
L 81.98833 232.85085 
L 82.019106 232.873663 
L 82.080658 233.09319 
L 82.142209 232.984658 
L 82.419192 232.497086 
L 82.480744 232.49542 
L 82.819278 231.91477 
L 82.850054 231.939982 
L 82.911606 232.034476 
L 83.096261 232.265423 
L 83.188589 232.243521 
L 83.407097 231.731996 
L 83.434796 231.849387 
L 83.527123 232.117652 
L 83.588675 232.021448 
L 83.681002 231.803606 
L 83.742554 231.94086 
L 83.834882 232.094884 
L 83.896433 231.998191 
L 83.988761 231.92651 
L 84.081089 232.078646 
L 84.111864 232.028689 
L 84.173416 231.942081 
L 84.204192 232.058343 
L 84.29652 232.104502 
L 84.481175 232.015728 
L 84.511951 232.044294 
L 84.542726 232.001689 
L 84.573502 231.914237 
L 84.635054 232.027101 
L 84.727382 231.879719 
L 84.758158 232.007354 
L 84.792011 232.088695 
L 84.819709 232.032039 
L 84.881261 231.824126 
L 84.942813 231.966955 
L 85.065916 231.914155 
L 85.158244 231.984392 
L 85.342899 232.06327 
L 85.373675 231.969376 
L 85.404451 232.085772 
L 85.435226 232.15783 
L 85.496778 232.090214 
L 85.650657 232.003718 
L 85.684511 232.053685 
L 85.712209 231.968941 
L 85.896864 231.920628 
L 86.050744 232.056082 
L 86.210778 231.891658 
L 86.666261 231.900414 
L 86.850916 231.818249 
L 87.281778 231.742201 
L 87.497209 231.862928 
L 87.558761 231.901978 
L 87.589537 231.796356 
L 87.651088 231.846846 
L 87.681864 231.885296 
L 87.737261 231.819324 
L 87.897295 231.768485 
L 88.051175 231.754904 
L 88.208131 231.921901 
L 88.23583 231.886736 
L 88.574364 231.508361 
L 88.912899 231.718475 
L 89.066778 231.658167 
L 89.189881 231.64213 
L 89.312985 231.606744 
L 89.559192 231.653814 
L 89.713071 231.585487 
L 90.270114 231.494301 
L 90.451692 231.426511 
L 90.667123 231.383396 
L 91.344192 231.605161 
L 91.559623 231.602939 
L 91.65195 231.686971 
L 91.867381 231.560002 
L 92.267467 231.574618 
L 92.759881 231.531514 
L 92.91376 231.508413 
L 93.006088 231.574207 
L 93.036864 231.524161 
L 93.129191 231.418428 
L 93.159967 231.460588 
L 93.313847 231.61057 
L 93.344622 231.593466 
L 93.467726 231.607326 
L 93.683157 231.502102 
L 93.80626 231.573383 
L 93.837036 231.517984 
L 94.021691 231.294976 
L 94.052467 231.32052 
L 94.32945 231.310436 
L 94.483329 231.28538 
L 94.760312 231.292903 
L 94.944967 231.143188 
L 94.975743 231.267447 
L 95.068071 231.20112 
L 95.098846 231.110247 
L 95.160398 231.24399 
L 95.314277 231.181172 
L 95.345053 231.223688 
L 95.560484 231.469871 
L 95.683588 231.446481 
L 95.806691 231.553036 
L 95.837467 231.465051 
L 95.902096 231.520381 
L 96.022122 231.704757 
L 96.052898 231.641117 
L 96.11445 231.682921 
L 96.145226 231.634142 
L 96.299105 231.50182 
L 96.329881 231.603577 
L 96.360657 231.474076 
L 96.391433 231.549533 
L 96.514536 231.475142 
L 96.545312 231.566148 
L 96.606864 231.497311 
L 96.760743 231.32887 
L 96.791519 231.446643 
L 96.85307 231.411507 
L 96.883846 231.324454 
L 96.914622 231.469482 
L 96.945398 231.44316 
L 97.099277 231.490185 
L 97.191605 231.67915 
L 97.222381 231.630837 
L 97.499363 231.36976 
L 97.591691 231.430645 
L 97.622467 231.309185 
L 97.653243 231.482535 
L 97.684019 231.338862 
L 97.714795 231.463942 
L 97.776346 231.394172 
L 97.807122 231.337884 
L 97.837898 231.355543 
L 97.868674 231.476448 
L 97.961001 231.408743 
L 98.053329 231.331842 
L 98.145657 231.293192 
L 98.176432 231.470451 
L 98.299536 231.20357 
L 98.514967 231.646095 
L 98.63807 231.577035 
L 98.79195 231.804628 
L 98.945829 231.567306 
L 99.007381 231.786036 
L 99.068932 231.710823 
L 99.136639 231.844918 
L 99.192036 231.810103 
L 99.253588 231.908684 
L 99.315139 231.773252 
L 99.376691 231.968748 
L 99.407467 231.943736 
L 99.438243 231.789134 
L 99.499794 231.97379 
L 99.68445 231.678845 
L 99.807553 231.905061 
L 99.869105 231.763387 
L 99.961432 231.814233 
L 99.992208 231.925675 
L 100.056837 231.807331 
L 100.176863 231.518533 
L 100.207639 231.657674 
L 100.361518 231.993933 
L 100.392294 232.047643 
L 100.484622 231.709541 
L 100.515398 231.855924 
L 100.669277 232.565048 
L 100.761605 232.442922 
L 100.823156 232.332946 
L 100.983191 231.665586 
L 101.038587 231.823784 
L 101.192467 231.945311 
L 101.377122 232.007907 
L 101.410975 232.006905 
L 101.531001 232.242981 
L 101.561777 232.227343 
L 101.68488 232.328234 
L 101.807984 232.011679 
L 101.83876 232.114835 
L 101.992639 232.611426 
L 102.023415 232.530749 
L 102.300398 231.503181 
L 102.334251 231.641894 
L 102.392725 231.691635 
L 102.485053 231.380522 
L 102.515829 231.515154 
L 102.73126 231.81505 
L 102.792811 231.676708 
L 103.069794 232.285786 
L 103.131346 232.15202 
L 103.162122 232.250312 
L 103.192898 232.367329 
L 103.254449 232.1988 
L 103.285225 232.140424 
L 103.316001 232.26244 
L 103.439104 232.370572 
L 103.377553 232.205797 
L 103.46988 232.351558 
L 103.531432 232.140824 
L 103.562208 232.256287 
L 103.592984 232.400893 
L 103.654535 232.231942 
L 103.808415 232.262709 
L 103.839191 232.383569 
L 103.900742 232.225347 
L 103.962294 232.324283 
L 104.116173 232.576088 
L 104.177725 232.390099 
L 104.208501 232.523421 
L 104.239277 232.564226 
L 104.270053 232.464024 
L 104.300829 232.376572 
L 104.331604 232.406493 
L 104.36238 232.554963 
L 104.423932 232.397008 
L 104.577811 232.621513 
L 104.639363 232.533017 
L 104.740923 232.557247 
L 104.762466 232.51231 
L 104.793242 232.434454 
L 104.88557 232.493185 
L 104.977897 232.437719 
L 105.008673 232.486255 
L 105.039449 232.507557 
L 105.070225 232.435742 
L 105.285656 232.315049 
L 105.377984 232.4573 
L 105.470311 232.334996 
L 105.77807 232.444283 
L 105.808846 232.353322 
L 105.931949 232.296234 
L 106.116604 232.42193 
L 106.14738 232.323949 
L 106.242785 232.385875 
L 106.455139 232.218632 
L 106.485915 232.302552 
L 106.553621 232.186147 
L 106.67057 232.057217 
L 106.732121 232.146757 
L 106.762897 232.0992 
L 106.793673 232.031184 
L 106.855225 232.128965 
L 107.009104 232.24036 
L 107.101432 232.206752 
L 107.255311 232.403314 
L 107.286087 232.359621 
L 107.439966 232.263017 
L 107.501518 232.323547 
L 107.56307 232.289939 
L 107.624621 232.290073 
L 107.655397 232.355978 
L 107.747725 232.456603 
L 107.778501 232.414398 
L 108.024708 232.252269 
L 108.270914 232.415689 
L 108.30169 232.359601 
L 108.517121 232.122061 
L 108.547897 232.149116 
L 109.224966 232.442304 
L 109.594276 232.410227 
L 109.71738 232.43917 
L 109.871259 232.398609 
L 110.148242 232.440169 
L 110.240569 232.513983 
L 110.548328 232.586768 
L 110.671432 232.576505 
L 110.886863 232.445039 
L 110.97919 232.488798 
L 111.009966 232.465763 
L 111.133069 232.46041 
L 111.256173 232.498416 
L 111.410052 232.366405 
L 111.656259 232.245634 
L 111.902466 232.212616 
L 112.117897 232.240982 
L 112.487207 232.192451 
L 113.933673 232.521882 
L 114.056776 232.561732 
L 114.272207 232.523432 
L 114.579966 232.533806 
L 114.733845 232.522144 
L 115.103155 232.50691 
L 115.410914 232.454866 
L 115.564793 232.455177 
L 115.872552 232.36668 
L 116.035664 232.384191 
L 116.241862 232.39635 
L 116.949707 232.440496 
L 117.042034 232.413041 
L 117.195914 232.400846 
L 117.811431 232.430038 
L 119.196345 232.442289 
L 125.628499 232.344174 
L 129.260051 232.29065 
L 129.383154 232.131828 
L 129.78324 232.233616 
L 129.906344 232.183993 
L 130.029447 232.214935 
L 130.152551 232.199453 
L 130.367982 232.260005 
L 130.644965 232.239923 
L 130.84193 232.236062 
L 132.46074 232.650006 
L 133.168585 232.745321 
L 133.691775 232.592032 
L 134.184188 232.454777 
L 134.861257 232.786388 
L 135.353671 232.697821 
L 135.50755 232.830188 
L 135.938412 233.237261 
L 136.369274 233.045686 
L 137.0248 232.771417 
L 137.354102 232.911771 
L 137.661861 233.036185 
L 138.277378 233.07787 
L 139.108326 233.341875 
L 139.477636 233.57762 
L 139.816171 234.109063 
L 140.247033 234.393521 
L 140.616343 234.567393 
L 141.785826 234.67801 
L 142.185912 234.757999 
L 142.555222 235.033061 
L 143.447722 235.342513 
L 143.847808 235.550004 
L 145.017291 235.635561 
L 145.478929 235.772568 
L 146.21755 235.747358 
L 147.017722 235.765786 
L 147.387032 236.028765 
L 147.725567 236.09306 
L 148.833498 236.01499 
L 151.203239 236.790984 
L 152.003411 236.955819 
L 154.804015 237.678402 
L 155.234877 237.928563 
L 157.912376 238.707065 
L 158.343238 238.85464 
L 159.266514 239.074588 
L 159.697376 239.16746 
L 161.205393 239.166463 
L 163.729014 239.678694 
L 165.267807 239.929893 
L 167.083583 240.480947 
L 167.6991 240.55764 
L 169.85341 241.106595 
L 172.130824 241.639507 
L 174.68522 242.836395 
L 176.377892 243.253324 
L 177.36272 243.3931 
L 178.10134 243.628846 
L 180.994271 244.581943 
L 182.102202 244.973034 
L 183.056254 245.085251 
L 183.887202 245.199732 
L 184.970512 245.36538 
L 186.564702 245.716252 
L 187.241771 246.120478 
L 189.242202 247.325193 
L 189.888495 247.509469 
L 191.057977 247.660103 
L 192.22746 247.840581 
L 193.520046 248.191926 
L 194.566425 248.48501 
L 195.982115 249.033763 
L 198.167201 249.429657 
L 198.47496 249.552139 
L 198.905822 249.83424 
L 199.890649 250.203558 
L 201.152459 250.324883 
L 202.168063 250.350703 
L 204.56858 250.488136 
L 205.245649 250.717295 
L 207.369183 251.47903 
L 207.707718 251.619682 
L 208.477114 251.721951 
L 211.277717 252.169149 
L 212.477976 252.608673 
L 213.493579 253.201246 
L 214.447631 253.377488 
L 215.801769 253.496098 
L 216.324958 253.729753 
L 218.602372 254.164941 
L 219.648751 254.350136 
L 221.775363 254.702668 
L 222.510906 254.949162 
L 223.434182 255.214715 
L 225.096078 255.849099 
L 227.074966 256.197655 
L 228.542975 256.712001 
L 230.081768 257.265603 
L 230.912716 257.371625 
L 231.805216 257.352282 
L 232.636164 257.455528 
L 235.744526 258.32727 
L 237.190991 259.150679 
L 239.529957 259.81667 
L 240.822543 260.146143 
L 244.977284 260.902933 
L 245.685129 261.030735 
L 246.946939 261.51957 
L 248.855042 262.200339 
L 249.993749 262.853971 
L 250.393835 263.077166 
L 251.47099 263.745162 
L 253.871507 264.228581 
L 254.240818 264.392324 
L 254.733231 264.792926 
L 255.04099 264.919828 
L 255.441076 265.053661 
L 256.641335 265.415342 
L 257.872369 265.707495 
L 259.50349 266.576778 
L 264.673834 267.34537 
L 267.074351 267.938001 
L 267.689868 268.118943 
L 269.751851 268.870342 
L 271.567627 269.248987 
L 272.777118 269.721542 
L 273.352627 270.181864 
L 274.091247 270.788453 
L 275.568489 271.096915 
L 278.245988 271.211007 
L 278.892281 271.162889 
L 279.477023 271.528888 
L 280.554178 272.304405 
L 282.369954 272.599303 
L 283.200902 272.769069 
L 284.03185 273.130313 
L 285.170557 273.748826 
L 285.573721 274.016293 
L 286.18616 274.37518 
L 286.647798 274.539258 
L 287.355643 275.0527 
L 288.309694 274.857766 
L 289.171419 274.827088 
L 289.540729 274.938683 
L 290.187022 275.332251 
L 290.617884 275.279629 
L 290.956418 275.251976 
L 291.141074 275.463043 
L 291.602712 275.806347 
L 292.064349 276.00589 
L 292.556763 276.255585 
L 294.034004 276.41036 
L 294.58797 276.689236 
L 296.834608 277.504009 
L 297.850211 277.701581 
L 299.081245 277.836862 
L 300.927797 277.986197 
L 301.543314 278.067694 
L 302.497366 278.071421 
L 303.574521 278.141894 
L 304.77478 278.434626 
L 305.14409 278.554571 
L 306.836762 278.976096 
L 307.729262 279.250723 
L 308.960296 279.520245 
L 310.099003 279.631296 
L 312.407193 279.833667 
L 314.469175 280.43819 
L 315.207796 280.988954 
L 315.730986 281.371471 
L 316.315727 281.671773 
L 316.992796 282.098283 
L 317.362106 282.215545 
L 317.85452 282.222468 
L 318.439261 282.111893 
L 318.839347 282.140305 
L 319.239434 282.421263 
L 319.670296 282.581417 
L 320.162709 282.809559 
L 320.90133 283.231919 
L 321.332192 283.319831 
L 322.132364 283.71252 
L 322.563227 283.761521 
L 323.486502 284.11206 
L 323.609606 284.071744 
L 323.855813 284.064458 
L 326.902623 284.292134 
L 327.88745 284.265127 
L 328.379864 284.592687 
L 329.056933 284.935721 
L 329.826329 284.937653 
L 330.995812 284.805142 
L 331.611329 285.11148 
L 332.196071 285.441323 
L 336.935553 285.596107 
L 337.643398 285.676009 
L 338.566674 285.727934 
L 339.212967 285.96587 
L 339.890036 286.332193 
L 340.197794 286.277989 
L 340.874863 286.078953 
L 341.367277 286.227713 
L 342.136673 286.626629 
L 343.367708 286.356332 
L 344.16788 286.253135 
L 346.014432 286.607349 
L 346.814604 286.69905 
L 347.430121 286.538555 
L 347.860983 286.703133 
L 348.815035 287.208491 
L 349.172035 287.076449 
L 350.230724 286.664318 
L 350.630811 286.839067 
L 351.861845 287.649159 
L 352.138828 287.55782 
L 352.785121 287.298123 
L 353.893052 287.125508 
L 354.662448 287.509096 
L 355.062534 287.649859 
L 355.647276 287.967836 
L 355.98581 287.811513 
L 356.385896 287.615662 
L 356.76444 287.704525 
L 357.339948 288.112804 
L 357.955465 288.470543 
L 358.324776 288.296971 
L 359.217276 288.023242 
L 362.017879 288.615553 
L 363.156586 288.631488 
L 364.91081 289.073414 
L 365.80331 288.932875 
L 366.449603 289.360486 
L 367.126672 289.769381 
L 367.403654 289.67429 
L 367.988396 289.371462 
L 369.74262 290.239372 
L 373.220292 290.571308 
L 374.174343 290.859651 
L 374.635981 290.720523 
L 375.005292 290.690536 
L 375.346904 290.884219 
L 375.713136 291.143896 
L 376.082447 291.195394 
L 376.574861 291.027465 
L 377.054964 290.951079 
L 378.175205 291.259303 
L 379.652447 291.481319 
L 380.329515 291.402938 
L 380.883481 291.609296 
L 381.899084 292.087819 
L 382.237619 291.884927 
L 382.514601 291.820065 
L 383.745636 292.41533 
L 384.884343 292.577458 
L 385.13055 292.492049 
L 386.084601 292.350613 
L 386.638567 292.684473 
L 387.28486 292.754157 
L 387.808049 292.961687 
L 389.306834 292.727763 
L 389.993135 292.984449 
L 391.624256 293.758263 
L 392.239773 293.85189 
L 392.578308 294.107738 
L 393.039946 294.377296 
L 394.732618 295.087369 
L 395.523557 295.083848 
L 395.542023 295.2928 
L 395.594342 294.953909 
L 395.625118 295.148294 
L 395.655894 295.073814 
L 395.686669 295.177215 
L 395.717445 295.184523 
L 395.871325 295.382707 
L 395.902101 295.35514 
L 396.548394 295.400615 
L 396.825376 295.289306 
L 396.856152 295.232285 
L 396.886928 295.406523 
L 396.917704 295.488 
L 396.94848 295.37969 
L 397.133135 295.109002 
L 397.348566 295.066308 
L 398.487273 294.591502 
L 398.487273 294.591502 
" clip-path="url(#pa347c4ff28)" style="fill: none; stroke: #2ca02c; stroke-width: 1.5; stroke-linecap: square"/>
   </g>
   <g id="patch_3">
    <path d="M 57.6 307.584 
L 57.6 41.472 
" style="fill: none; stroke: #000000; stroke-width: 0.8; stroke-linejoin: miter; stroke-linecap: square"/>
   </g>
   <g id="patch_4">
    <path d="M 414.72 307.584 
L 414.72 41.472 
" style="fill: none; stroke: #000000; stroke-width: 0.8; stroke-linejoin: miter; stroke-linecap: square"/>
   </g>
   <g id="patch_5">
    <path d="M 57.6 307.584 
L 414.72 307.584 
" style="fill: none; stroke: #000000; stroke-width: 0.8; stroke-linejoin: miter; stroke-linecap: square"/>
   </g>
   <g id="patch_6">
    <path d="M 57.6 41.472 
L 414.72 41.472 
" style="fill: none; stroke: #000000; stroke-width: 0.8; stroke-linejoin: miter; stroke-linecap: square"/>
   </g>
   <g id="text_15">
    <!-- Valeurs de Simulation -->
    <g transform="translate(170.81625 35.472) scale(0.12 -0.12)">
     <defs>
      <path id="DejaVuSans-61" d="M 2194 1759 
Q 1497 1759 1228 1600 
Q 959 1441 959 1056 
Q 959 750 1161 570 
Q 1363 391 1709 391 
Q 2188 391 2477 730 
Q 2766 1069 2766 1631 
L 2766 1759 
L 2194 1759 
z
M 3341 1997 
L 3341 0 
L 2766 0 
L 2766 531 
Q 2569 213 2275 61 
Q 1981 -91 1556 -91 
Q 1019 -91 701 211 
Q 384 513 384 1019 
Q 384 1609 779 1909 
Q 1175 2209 1959 2209 
L 2766 2209 
L 2766 2266 
Q 2766 2663 2505 2880 
Q 2244 3097 1772 3097 
Q 1472 3097 1187 3025 
Q 903 2953 641 2809 
L 641 3341 
Q 956 3463 1253 3523 
Q 1550 3584 1831 3584 
Q 2591 3584 2966 3190 
Q 3341 2797 3341 1997 
z
" transform="scale(0.015625)"/>
      <path id="DejaVuSans-6c" d="M 603 4863 
L 1178 4863 
L 1178 0 
L 603 0 
L 603 4863 
z
" transform="scale(0.015625)"/>
      <path id="DejaVuSans-75" d="M 544 1381 
L 544 3500 
L 1119 3500 
L 1119 1403 
Q 1119 906 1312 657 
Q 1506 409 1894 409 
Q 2359 409 2629 706 
Q 2900 1003 2900 1516 
L 2900 3500 
L 3475 3500 
L 3475 0 
L 2900 0 
L 2900 538 
Q 2691 219 2414 64 
Q 2138 -91 1772 -91 
Q 1169 -91 856 284 
Q 544 659 544 1381 
z
M 1991 3584 
L 1991 3584 
z
" transform="scale(0.015625)"/>
      <path id="DejaVuSans-72" d="M 2631 2963 
Q 2534 3019 2420 3045 
Q 2306 3072 2169 3072 
Q 1681 3072 1420 2755 
Q 1159 2438 1159 1844 
L 1159 0 
L 581 0 
L 581 3500 
L 1159 3500 
L 1159 2956 
Q 1341 3275 1631 3429 
Q 1922 3584 2338 3584 
Q 2397 3584 2469 3576 
Q 2541 3569 2628 3553 
L 2631 2963 
z
" transform="scale(0.015625)"/>
      <path id="DejaVuSans-64" d="M 2906 2969 
L 2906 4863 
L 3481 4863 
L 3481 0 
L 2906 0 
L 2906 525 
Q 2725 213 2448 61 
Q 2172 -91 1784 -91 
Q 1150 -91 751 415 
Q 353 922 353 1747 
Q 353 2572 751 3078 
Q 1150 3584 1784 3584 
Q 2172 3584 2448 3432 
Q 2725 3281 2906 2969 
z
M 947 1747 
Q 947 1113 1208 752 
Q 1469 391 1925 391 
Q 2381 391 2643 752 
Q 2906 1113 2906 1747 
Q 2906 2381 2643 2742 
Q 2381 3103 1925 3103 
Q 1469 3103 1208 2742 
Q 947 2381 947 1747 
z
" transform="scale(0.015625)"/>
      <path id="DejaVuSans-53" d="M 3425 4513 
L 3425 3897 
Q 3066 4069 2747 4153 
Q 2428 4238 2131 4238 
Q 1616 4238 1336 4038 
Q 1056 3838 1056 3469 
Q 1056 3159 1242 3001 
Q 1428 2844 1947 2747 
L 2328 2669 
Q 3034 2534 3370 2195 
Q 3706 1856 3706 1288 
Q 3706 609 3251 259 
Q 2797 -91 1919 -91 
Q 1588 -91 1214 -16 
Q 841 59 441 206 
L 441 856 
Q 825 641 1194 531 
Q 1563 422 1919 422 
Q 2459 422 2753 634 
Q 3047 847 3047 1241 
Q 3047 1584 2836 1778 
Q 2625 1972 2144 2069 
L 1759 2144 
Q 1053 2284 737 2584 
Q 422 2884 422 3419 
Q 422 4038 858 4394 
Q 1294 4750 2059 4750 
Q 2388 4750 2728 4690 
Q 3069 4631 3425 4513 
z
" transform="scale(0.015625)"/>
      <path id="DejaVuSans-6f" d="M 1959 3097 
Q 1497 3097 1228 2736 
Q 959 2375 959 1747 
Q 959 1119 1226 758 
Q 1494 397 1959 397 
Q 2419 397 2687 759 
Q 2956 1122 2956 1747 
Q 2956 2369 2687 2733 
Q 2419 3097 1959 3097 
z
M 1959 3584 
Q 2709 3584 3137 3096 
Q 3566 2609 3566 1747 
Q 3566 888 3137 398 
Q 2709 -91 1959 -91 
Q 1206 -91 779 398 
Q 353 888 353 1747 
Q 353 2609 779 3096 
Q 1206 3584 1959 3584 
z
" transform="scale(0.015625)"/>
      <path id="DejaVuSans-6e" d="M 3513 2113 
L 3513 0 
L 2938 0 
L 2938 2094 
Q 2938 2591 2744 2837 
Q 2550 3084 2163 3084 
Q 1697 3084 1428 2787 
Q 1159 2491 1159 1978 
L 1159 0 
L 581 0 
L 581 3500 
L 1159 3500 
L 1159 2956 
Q 1366 3272 1645 3428 
Q 1925 3584 2291 3584 
Q 2894 3584 3203 3211 
Q 3513 2838 3513 2113 
z
" transform="scale(0.015625)"/>
     </defs>
     <use xlink:href="#DejaVuSans-56"/>
     <use xlink:href="#DejaVuSans-61" x="60.658203"/>
     <use xlink:href="#DejaVuSans-6c" x="121.9375"/>
     <use xlink:href="#DejaVuSans-65" x="149.720703"/>
     <use xlink:href="#DejaVuSans-75" x="211.244141"/>
     <use xlink:href="#DejaVuSans-72" x="274.623047"/>
     <use xlink:href="#DejaVuSans-73" x="315.736328"/>
     <use xlink:href="#DejaVuSans-20" x="367.835938"/>
     <use xlink:href="#DejaVuSans-64" x="399.623047"/>
     <use xlink:href="#DejaVuSans-65" x="463.099609"/>
     <use xlink:href="#DejaVuSans-20" x="524.623047"/>
     <use xlink:href="#DejaVuSans-53" x="556.410156"/>
     <use xlink:href="#DejaVuSans-69" x="619.886719"/>
     <use xlink:href="#DejaVuSans-6d" x="647.669922"/>
     <use xlink:href="#DejaVuSans-75" x="745.082031"/>
     <use xlink:href="#DejaVuSans-6c" x="808.460938"/>
     <use xlink:href="#DejaVuSans-61" x="836.244141"/>
     <use xlink:href="#DejaVuSans-74" x="897.523438"/>
     <use xlink:href="#DejaVuSans-69" x="936.732422"/>
     <use xlink:href="#DejaVuSans-6f" x="964.515625"/>
     <use xlink:href="#DejaVuSans-6e" x="1025.697266"/>
    </g>
   </g>
   <g id="legend_1">
    <g id="patch_7">
     <path d="M 64.6 93.506375 
L 108.4375 93.506375 
Q 110.4375 93.506375 110.4375 91.506375 
L 110.4375 48.472 
Q 110.4375 46.472 108.4375 46.472 
L 64.6 46.472 
Q 62.6 46.472 62.6 48.472 
L 62.6 91.506375 
Q 62.6 93.506375 64.6 93.506375 
z
" style="fill: #ffffff; opacity: 0.8; stroke: #cccccc; stroke-linejoin: miter"/>
    </g>
    <g id="line2d_28">
     <path d="M 66.6 54.570438 
L 76.6 54.570438 
L 86.6 54.570438 
" style="fill: none; stroke: #1f77b4; stroke-width: 1.5; stroke-linecap: square"/>
    </g>
    <g id="text_16">
     <!-- vx -->
     <g transform="translate(94.6 58.070438) scale(0.1 -0.1)">
      <defs>
       <path id="DejaVuSans-76" d="M 191 3500 
L 800 3500 
L 1894 563 
L 2988 3500 
L 3597 3500 
L 2284 0 
L 1503 0 
L 191 3500 
z
" transform="scale(0.015625)"/>
       <path id="DejaVuSans-78" d="M 3513 3500 
L 2247 1797 
L 3578 0 
L 2900 0 
L 1881 1375 
L 863 0 
L 184 0 
L 1544 1831 
L 300 3500 
L 978 3500 
L 1906 2253 
L 2834 3500 
L 3513 3500 
z
" transform="scale(0.015625)"/>
      </defs>
      <use xlink:href="#DejaVuSans-76"/>
      <use xlink:href="#DejaVuSans-78" x="59.179688"/>
     </g>
    </g>
    <g id="line2d_29">
     <path d="M 66.6 69.248563 
L 76.6 69.248563 
L 86.6 69.248563 
" style="fill: none; stroke: #ff7f0e; stroke-width: 1.5; stroke-linecap: square"/>
    </g>
    <g id="text_17">
     <!-- vy -->
     <g transform="translate(94.6 72.748563) scale(0.1 -0.1)">
      <defs>
       <path id="DejaVuSans-79" d="M 2059 -325 
Q 1816 -950 1584 -1140 
Q 1353 -1331 966 -1331 
L 506 -1331 
L 506 -850 
L 844 -850 
Q 1081 -850 1212 -737 
Q 1344 -625 1503 -206 
L 1606 56 
L 191 3500 
L 800 3500 
L 1894 763 
L 2988 3500 
L 3597 3500 
L 2059 -325 
z
" transform="scale(0.015625)"/>
      </defs>
      <use xlink:href="#DejaVuSans-76"/>
      <use xlink:href="#DejaVuSans-79" x="59.179688"/>
     </g>
    </g>
    <g id="line2d_30">
     <path d="M 66.6 83.926688 
L 76.6 83.926688 
L 86.6 83.926688 
" style="fill: none; stroke: #2ca02c; stroke-width: 1.5; stroke-linecap: square"/>
    </g>
    <g id="text_18">
     <!-- vz -->
     <g transform="translate(94.6 87.426688) scale(0.1 -0.1)">
      <defs>
       <path id="DejaVuSans-7a" d="M 353 3500 
L 3084 3500 
L 3084 2975 
L 922 459 
L 3084 459 
L 3084 0 
L 275 0 
L 275 525 
L 2438 3041 
L 353 3041 
L 353 3500 
z
" transform="scale(0.015625)"/>
      </defs>
      <use xlink:href="#DejaVuSans-76"/>
      <use xlink:href="#DejaVuSans-7a" x="59.179688"/>
     </g>
    </g>
   </g>
  </g>
 </g>
 <defs>
  <clipPath id="pa347c4ff28">
   <rect x="57.6" y="41.472" width="357.12" height="266.112"/>
  </clipPath>
 </defs>
</svg>
