<?xml version="1.0" encoding="utf-8" standalone="no"?>
<!DOCTYPE svg PUBLIC "-//W3C//DTD SVG 1.1//EN"
  "http://www.w3.org/Graphics/SVG/1.1/DTD/svg11.dtd">
<svg xmlns:xlink="http://www.w3.org/1999/xlink" width="460.8pt" height="345.6pt" viewBox="0 0 460.8 345.6" xmlns="http://www.w3.org/2000/svg" version="1.1">
 <metadata>
  <rdf:RDF xmlns:dc="http://purl.org/dc/elements/1.1/" xmlns:cc="http://creativecommons.org/ns#" xmlns:rdf="http://www.w3.org/1999/02/22-rdf-syntax-ns#">
   <cc:Work>
    <dc:type rdf:resource="http://purl.org/dc/dcmitype/StillImage"/>
    <dc:date>2024-07-30T12:15:50.984679</dc:date>
    <dc:format>image/svg+xml</dc:format>
    <dc:creator>
     <cc:Agent>
      <dc:title>Matplotlib v3.7.2, https://matplotlib.org/</dc:title>
     </cc:Agent>
    </dc:creator>
   </cc:Work>
  </rdf:RDF>
 </metadata>
 <defs>
  <style type="text/css">*{stroke-linejoin: round; stroke-linecap: butt}</style>
 </defs>
 <g id="figure_1">
  <g id="patch_1">
   <path d="M 0 345.6 
L 460.8 345.6 
L 460.8 0 
L 0 0 
z
" style="fill: #ffffff"/>
  </g>
  <g id="axes_1">
   <g id="patch_2">
    <path d="M 57.6 307.584 
L 414.72 307.584 
L 414.72 41.472 
L 57.6 41.472 
z
" style="fill: #ffffff"/>
   </g>
   <g id="matplotlib.axis_1">
    <g id="xtick_1">
     <g id="line2d_1">
      <defs>
       <path id="maa676951d2" d="M 0 0 
L 0 3.5 
" style="stroke: #000000; stroke-width: 0.8"/>
      </defs>
      <g>
       <use xlink:href="#maa676951d2" x="98.814945" y="307.584" style="stroke: #000000; stroke-width: 0.8"/>
      </g>
     </g>
     <g id="text_1">
      <!-- 1.76 -->
      <g transform="translate(87.682133 322.182437) scale(0.1 -0.1)">
       <defs>
        <path id="DejaVuSans-31" d="M 794 531 
L 1825 531 
L 1825 4091 
L 703 3866 
L 703 4441 
L 1819 4666 
L 2450 4666 
L 2450 531 
L 3481 531 
L 3481 0 
L 794 0 
L 794 531 
z
" transform="scale(0.015625)"/>
        <path id="DejaVuSans-2e" d="M 684 794 
L 1344 794 
L 1344 0 
L 684 0 
L 684 794 
z
" transform="scale(0.015625)"/>
        <path id="DejaVuSans-37" d="M 525 4666 
L 3525 4666 
L 3525 4397 
L 1831 0 
L 1172 0 
L 2766 4134 
L 525 4134 
L 525 4666 
z
" transform="scale(0.015625)"/>
        <path id="DejaVuSans-36" d="M 2113 2584 
Q 1688 2584 1439 2293 
Q 1191 2003 1191 1497 
Q 1191 994 1439 701 
Q 1688 409 2113 409 
Q 2538 409 2786 701 
Q 3034 994 3034 1497 
Q 3034 2003 2786 2293 
Q 2538 2584 2113 2584 
z
M 3366 4563 
L 3366 3988 
Q 3128 4100 2886 4159 
Q 2644 4219 2406 4219 
Q 1781 4219 1451 3797 
Q 1122 3375 1075 2522 
Q 1259 2794 1537 2939 
Q 1816 3084 2150 3084 
Q 2853 3084 3261 2657 
Q 3669 2231 3669 1497 
Q 3669 778 3244 343 
Q 2819 -91 2113 -91 
Q 1303 -91 875 529 
Q 447 1150 447 2328 
Q 447 3434 972 4092 
Q 1497 4750 2381 4750 
Q 2619 4750 2861 4703 
Q 3103 4656 3366 4563 
z
" transform="scale(0.015625)"/>
       </defs>
       <use xlink:href="#DejaVuSans-31"/>
       <use xlink:href="#DejaVuSans-2e" x="63.623047"/>
       <use xlink:href="#DejaVuSans-37" x="95.410156"/>
       <use xlink:href="#DejaVuSans-36" x="159.033203"/>
      </g>
     </g>
    </g>
    <g id="xtick_2">
     <g id="line2d_2">
      <g>
       <use xlink:href="#maa676951d2" x="150.763828" y="307.584" style="stroke: #000000; stroke-width: 0.8"/>
      </g>
     </g>
     <g id="text_2">
      <!-- 1.78 -->
      <g transform="translate(139.631016 322.182437) scale(0.1 -0.1)">
       <defs>
        <path id="DejaVuSans-38" d="M 2034 2216 
Q 1584 2216 1326 1975 
Q 1069 1734 1069 1313 
Q 1069 891 1326 650 
Q 1584 409 2034 409 
Q 2484 409 2743 651 
Q 3003 894 3003 1313 
Q 3003 1734 2745 1975 
Q 2488 2216 2034 2216 
z
M 1403 2484 
Q 997 2584 770 2862 
Q 544 3141 544 3541 
Q 544 4100 942 4425 
Q 1341 4750 2034 4750 
Q 2731 4750 3128 4425 
Q 3525 4100 3525 3541 
Q 3525 3141 3298 2862 
Q 3072 2584 2669 2484 
Q 3125 2378 3379 2068 
Q 3634 1759 3634 1313 
Q 3634 634 3220 271 
Q 2806 -91 2034 -91 
Q 1263 -91 848 271 
Q 434 634 434 1313 
Q 434 1759 690 2068 
Q 947 2378 1403 2484 
z
M 1172 3481 
Q 1172 3119 1398 2916 
Q 1625 2713 2034 2713 
Q 2441 2713 2670 2916 
Q 2900 3119 2900 3481 
Q 2900 3844 2670 4047 
Q 2441 4250 2034 4250 
Q 1625 4250 1398 4047 
Q 1172 3844 1172 3481 
z
" transform="scale(0.015625)"/>
       </defs>
       <use xlink:href="#DejaVuSans-31"/>
       <use xlink:href="#DejaVuSans-2e" x="63.623047"/>
       <use xlink:href="#DejaVuSans-37" x="95.410156"/>
       <use xlink:href="#DejaVuSans-38" x="159.033203"/>
      </g>
     </g>
    </g>
    <g id="xtick_3">
     <g id="line2d_3">
      <g>
       <use xlink:href="#maa676951d2" x="202.712712" y="307.584" style="stroke: #000000; stroke-width: 0.8"/>
      </g>
     </g>
     <g id="text_3">
      <!-- 1.80 -->
      <g transform="translate(191.579899 322.182437) scale(0.1 -0.1)">
       <defs>
        <path id="DejaVuSans-30" d="M 2034 4250 
Q 1547 4250 1301 3770 
Q 1056 3291 1056 2328 
Q 1056 1369 1301 889 
Q 1547 409 2034 409 
Q 2525 409 2770 889 
Q 3016 1369 3016 2328 
Q 3016 3291 2770 3770 
Q 2525 4250 2034 4250 
z
M 2034 4750 
Q 2819 4750 3233 4129 
Q 3647 3509 3647 2328 
Q 3647 1150 3233 529 
Q 2819 -91 2034 -91 
Q 1250 -91 836 529 
Q 422 1150 422 2328 
Q 422 3509 836 4129 
Q 1250 4750 2034 4750 
z
" transform="scale(0.015625)"/>
       </defs>
       <use xlink:href="#DejaVuSans-31"/>
       <use xlink:href="#DejaVuSans-2e" x="63.623047"/>
       <use xlink:href="#DejaVuSans-38" x="95.410156"/>
       <use xlink:href="#DejaVuSans-30" x="159.033203"/>
      </g>
     </g>
    </g>
    <g id="xtick_4">
     <g id="line2d_4">
      <g>
       <use xlink:href="#maa676951d2" x="254.661595" y="307.584" style="stroke: #000000; stroke-width: 0.8"/>
      </g>
     </g>
     <g id="text_4">
      <!-- 1.82 -->
      <g transform="translate(243.528782 322.182437) scale(0.1 -0.1)">
       <defs>
        <path id="DejaVuSans-32" d="M 1228 531 
L 3431 531 
L 3431 0 
L 469 0 
L 469 531 
Q 828 903 1448 1529 
Q 2069 2156 2228 2338 
Q 2531 2678 2651 2914 
Q 2772 3150 2772 3378 
Q 2772 3750 2511 3984 
Q 2250 4219 1831 4219 
Q 1534 4219 1204 4116 
Q 875 4013 500 3803 
L 500 4441 
Q 881 4594 1212 4672 
Q 1544 4750 1819 4750 
Q 2544 4750 2975 4387 
Q 3406 4025 3406 3419 
Q 3406 3131 3298 2873 
Q 3191 2616 2906 2266 
Q 2828 2175 2409 1742 
Q 1991 1309 1228 531 
z
" transform="scale(0.015625)"/>
       </defs>
       <use xlink:href="#DejaVuSans-31"/>
       <use xlink:href="#DejaVuSans-2e" x="63.623047"/>
       <use xlink:href="#DejaVuSans-38" x="95.410156"/>
       <use xlink:href="#DejaVuSans-32" x="159.033203"/>
      </g>
     </g>
    </g>
    <g id="xtick_5">
     <g id="line2d_5">
      <g>
       <use xlink:href="#maa676951d2" x="306.610478" y="307.584" style="stroke: #000000; stroke-width: 0.8"/>
      </g>
     </g>
     <g id="text_5">
      <!-- 1.84 -->
      <g transform="translate(295.477665 322.182437) scale(0.1 -0.1)">
       <defs>
        <path id="DejaVuSans-34" d="M 2419 4116 
L 825 1625 
L 2419 1625 
L 2419 4116 
z
M 2253 4666 
L 3047 4666 
L 3047 1625 
L 3713 1625 
L 3713 1100 
L 3047 1100 
L 3047 0 
L 2419 0 
L 2419 1100 
L 313 1100 
L 313 1709 
L 2253 4666 
z
" transform="scale(0.015625)"/>
       </defs>
       <use xlink:href="#DejaVuSans-31"/>
       <use xlink:href="#DejaVuSans-2e" x="63.623047"/>
       <use xlink:href="#DejaVuSans-38" x="95.410156"/>
       <use xlink:href="#DejaVuSans-34" x="159.033203"/>
      </g>
     </g>
    </g>
    <g id="xtick_6">
     <g id="line2d_6">
      <g>
       <use xlink:href="#maa676951d2" x="358.559361" y="307.584" style="stroke: #000000; stroke-width: 0.8"/>
      </g>
     </g>
     <g id="text_6">
      <!-- 1.86 -->
      <g transform="translate(347.426549 322.182437) scale(0.1 -0.1)">
       <use xlink:href="#DejaVuSans-31"/>
       <use xlink:href="#DejaVuSans-2e" x="63.623047"/>
       <use xlink:href="#DejaVuSans-38" x="95.410156"/>
       <use xlink:href="#DejaVuSans-36" x="159.033203"/>
      </g>
     </g>
    </g>
    <g id="xtick_7">
     <g id="line2d_7">
      <g>
       <use xlink:href="#maa676951d2" x="410.508244" y="307.584" style="stroke: #000000; stroke-width: 0.8"/>
      </g>
     </g>
     <g id="text_7">
      <!-- 1.88 -->
      <g transform="translate(399.375432 322.182437) scale(0.1 -0.1)">
       <use xlink:href="#DejaVuSans-31"/>
       <use xlink:href="#DejaVuSans-2e" x="63.623047"/>
       <use xlink:href="#DejaVuSans-38" x="95.410156"/>
       <use xlink:href="#DejaVuSans-38" x="159.033203"/>
      </g>
     </g>
    </g>
    <g id="text_8">
     <!-- Temps (ms) -->
     <g transform="translate(207.264687 335.860562) scale(0.1 -0.1)">
      <defs>
       <path id="DejaVuSans-54" d="M -19 4666 
L 3928 4666 
L 3928 4134 
L 2272 4134 
L 2272 0 
L 1638 0 
L 1638 4134 
L -19 4134 
L -19 4666 
z
" transform="scale(0.015625)"/>
       <path id="DejaVuSans-65" d="M 3597 1894 
L 3597 1613 
L 953 1613 
Q 991 1019 1311 708 
Q 1631 397 2203 397 
Q 2534 397 2845 478 
Q 3156 559 3463 722 
L 3463 178 
Q 3153 47 2828 -22 
Q 2503 -91 2169 -91 
Q 1331 -91 842 396 
Q 353 884 353 1716 
Q 353 2575 817 3079 
Q 1281 3584 2069 3584 
Q 2775 3584 3186 3129 
Q 3597 2675 3597 1894 
z
M 3022 2063 
Q 3016 2534 2758 2815 
Q 2500 3097 2075 3097 
Q 1594 3097 1305 2825 
Q 1016 2553 972 2059 
L 3022 2063 
z
" transform="scale(0.015625)"/>
       <path id="DejaVuSans-6d" d="M 3328 2828 
Q 3544 3216 3844 3400 
Q 4144 3584 4550 3584 
Q 5097 3584 5394 3201 
Q 5691 2819 5691 2113 
L 5691 0 
L 5113 0 
L 5113 2094 
Q 5113 2597 4934 2840 
Q 4756 3084 4391 3084 
Q 3944 3084 3684 2787 
Q 3425 2491 3425 1978 
L 3425 0 
L 2847 0 
L 2847 2094 
Q 2847 2600 2669 2842 
Q 2491 3084 2119 3084 
Q 1678 3084 1418 2786 
Q 1159 2488 1159 1978 
L 1159 0 
L 581 0 
L 581 3500 
L 1159 3500 
L 1159 2956 
Q 1356 3278 1631 3431 
Q 1906 3584 2284 3584 
Q 2666 3584 2933 3390 
Q 3200 3197 3328 2828 
z
" transform="scale(0.015625)"/>
       <path id="DejaVuSans-70" d="M 1159 525 
L 1159 -1331 
L 581 -1331 
L 581 3500 
L 1159 3500 
L 1159 2969 
Q 1341 3281 1617 3432 
Q 1894 3584 2278 3584 
Q 2916 3584 3314 3078 
Q 3713 2572 3713 1747 
Q 3713 922 3314 415 
Q 2916 -91 2278 -91 
Q 1894 -91 1617 61 
Q 1341 213 1159 525 
z
M 3116 1747 
Q 3116 2381 2855 2742 
Q 2594 3103 2138 3103 
Q 1681 3103 1420 2742 
Q 1159 2381 1159 1747 
Q 1159 1113 1420 752 
Q 1681 391 2138 391 
Q 2594 391 2855 752 
Q 3116 1113 3116 1747 
z
" transform="scale(0.015625)"/>
       <path id="DejaVuSans-73" d="M 2834 3397 
L 2834 2853 
Q 2591 2978 2328 3040 
Q 2066 3103 1784 3103 
Q 1356 3103 1142 2972 
Q 928 2841 928 2578 
Q 928 2378 1081 2264 
Q 1234 2150 1697 2047 
L 1894 2003 
Q 2506 1872 2764 1633 
Q 3022 1394 3022 966 
Q 3022 478 2636 193 
Q 2250 -91 1575 -91 
Q 1294 -91 989 -36 
Q 684 19 347 128 
L 347 722 
Q 666 556 975 473 
Q 1284 391 1588 391 
Q 1994 391 2212 530 
Q 2431 669 2431 922 
Q 2431 1156 2273 1281 
Q 2116 1406 1581 1522 
L 1381 1569 
Q 847 1681 609 1914 
Q 372 2147 372 2553 
Q 372 3047 722 3315 
Q 1072 3584 1716 3584 
Q 2034 3584 2315 3537 
Q 2597 3491 2834 3397 
z
" transform="scale(0.015625)"/>
       <path id="DejaVuSans-20" transform="scale(0.015625)"/>
       <path id="DejaVuSans-28" d="M 1984 4856 
Q 1566 4138 1362 3434 
Q 1159 2731 1159 2009 
Q 1159 1288 1364 580 
Q 1569 -128 1984 -844 
L 1484 -844 
Q 1016 -109 783 600 
Q 550 1309 550 2009 
Q 550 2706 781 3412 
Q 1013 4119 1484 4856 
L 1984 4856 
z
" transform="scale(0.015625)"/>
       <path id="DejaVuSans-29" d="M 513 4856 
L 1013 4856 
Q 1481 4119 1714 3412 
Q 1947 2706 1947 2009 
Q 1947 1309 1714 600 
Q 1481 -109 1013 -844 
L 513 -844 
Q 928 -128 1133 580 
Q 1338 1288 1338 2009 
Q 1338 2731 1133 3434 
Q 928 4138 513 4856 
z
" transform="scale(0.015625)"/>
      </defs>
      <use xlink:href="#DejaVuSans-54"/>
      <use xlink:href="#DejaVuSans-65" x="44.083984"/>
      <use xlink:href="#DejaVuSans-6d" x="105.607422"/>
      <use xlink:href="#DejaVuSans-70" x="203.019531"/>
      <use xlink:href="#DejaVuSans-73" x="266.496094"/>
      <use xlink:href="#DejaVuSans-20" x="318.595703"/>
      <use xlink:href="#DejaVuSans-28" x="350.382812"/>
      <use xlink:href="#DejaVuSans-6d" x="389.396484"/>
      <use xlink:href="#DejaVuSans-73" x="486.808594"/>
      <use xlink:href="#DejaVuSans-29" x="538.908203"/>
     </g>
    </g>
    <g id="text_9">
     <!-- 1e6 -->
     <g transform="translate(395.841875 334.860562) scale(0.1 -0.1)">
      <use xlink:href="#DejaVuSans-31"/>
      <use xlink:href="#DejaVuSans-65" x="63.623047"/>
      <use xlink:href="#DejaVuSans-36" x="125.146484"/>
     </g>
    </g>
   </g>
   <g id="matplotlib.axis_2">
    <g id="ytick_1">
     <g id="line2d_8">
      <defs>
       <path id="m7c69e57fe6" d="M 0 0 
L -3.5 0 
" style="stroke: #000000; stroke-width: 0.8"/>
      </defs>
      <g>
       <use xlink:href="#m7c69e57fe6" x="57.6" y="295.488" style="stroke: #000000; stroke-width: 0.8"/>
      </g>
     </g>
     <g id="text_10">
      <!-- 0 -->
      <g transform="translate(44.2375 299.287219) scale(0.1 -0.1)">
       <use xlink:href="#DejaVuSans-30"/>
      </g>
     </g>
    </g>
    <g id="ytick_2">
     <g id="line2d_9">
      <g>
       <use xlink:href="#m7c69e57fe6" x="57.6" y="262.707512" style="stroke: #000000; stroke-width: 0.8"/>
      </g>
     </g>
     <g id="text_11">
      <!-- 50 -->
      <g transform="translate(37.875 266.506731) scale(0.1 -0.1)">
       <defs>
        <path id="DejaVuSans-35" d="M 691 4666 
L 3169 4666 
L 3169 4134 
L 1269 4134 
L 1269 2991 
Q 1406 3038 1543 3061 
Q 1681 3084 1819 3084 
Q 2600 3084 3056 2656 
Q 3513 2228 3513 1497 
Q 3513 744 3044 326 
Q 2575 -91 1722 -91 
Q 1428 -91 1123 -41 
Q 819 9 494 109 
L 494 744 
Q 775 591 1075 516 
Q 1375 441 1709 441 
Q 2250 441 2565 725 
Q 2881 1009 2881 1497 
Q 2881 1984 2565 2268 
Q 2250 2553 1709 2553 
Q 1456 2553 1204 2497 
Q 953 2441 691 2322 
L 691 4666 
z
" transform="scale(0.015625)"/>
       </defs>
       <use xlink:href="#DejaVuSans-35"/>
       <use xlink:href="#DejaVuSans-30" x="63.623047"/>
      </g>
     </g>
    </g>
    <g id="ytick_3">
     <g id="line2d_10">
      <g>
       <use xlink:href="#m7c69e57fe6" x="57.6" y="229.927024" style="stroke: #000000; stroke-width: 0.8"/>
      </g>
     </g>
     <g id="text_12">
      <!-- 100 -->
      <g transform="translate(31.5125 233.726243) scale(0.1 -0.1)">
       <use xlink:href="#DejaVuSans-31"/>
       <use xlink:href="#DejaVuSans-30" x="63.623047"/>
       <use xlink:href="#DejaVuSans-30" x="127.246094"/>
      </g>
     </g>
    </g>
    <g id="ytick_4">
     <g id="line2d_11">
      <g>
       <use xlink:href="#m7c69e57fe6" x="57.6" y="197.146537" style="stroke: #000000; stroke-width: 0.8"/>
      </g>
     </g>
     <g id="text_13">
      <!-- 150 -->
      <g transform="translate(31.5125 200.945755) scale(0.1 -0.1)">
       <use xlink:href="#DejaVuSans-31"/>
       <use xlink:href="#DejaVuSans-35" x="63.623047"/>
       <use xlink:href="#DejaVuSans-30" x="127.246094"/>
      </g>
     </g>
    </g>
    <g id="ytick_5">
     <g id="line2d_12">
      <g>
       <use xlink:href="#m7c69e57fe6" x="57.6" y="164.366049" style="stroke: #000000; stroke-width: 0.8"/>
      </g>
     </g>
     <g id="text_14">
      <!-- 200 -->
      <g transform="translate(31.5125 168.165268) scale(0.1 -0.1)">
       <use xlink:href="#DejaVuSans-32"/>
       <use xlink:href="#DejaVuSans-30" x="63.623047"/>
       <use xlink:href="#DejaVuSans-30" x="127.246094"/>
      </g>
     </g>
    </g>
    <g id="ytick_6">
     <g id="line2d_13">
      <g>
       <use xlink:href="#m7c69e57fe6" x="57.6" y="131.585561" style="stroke: #000000; stroke-width: 0.8"/>
      </g>
     </g>
     <g id="text_15">
      <!-- 250 -->
      <g transform="translate(31.5125 135.38478) scale(0.1 -0.1)">
       <use xlink:href="#DejaVuSans-32"/>
       <use xlink:href="#DejaVuSans-35" x="63.623047"/>
       <use xlink:href="#DejaVuSans-30" x="127.246094"/>
      </g>
     </g>
    </g>
    <g id="ytick_7">
     <g id="line2d_14">
      <g>
       <use xlink:href="#m7c69e57fe6" x="57.6" y="98.805073" style="stroke: #000000; stroke-width: 0.8"/>
      </g>
     </g>
     <g id="text_16">
      <!-- 300 -->
      <g transform="translate(31.5125 102.604292) scale(0.1 -0.1)">
       <defs>
        <path id="DejaVuSans-33" d="M 2597 2516 
Q 3050 2419 3304 2112 
Q 3559 1806 3559 1356 
Q 3559 666 3084 287 
Q 2609 -91 1734 -91 
Q 1441 -91 1130 -33 
Q 819 25 488 141 
L 488 750 
Q 750 597 1062 519 
Q 1375 441 1716 441 
Q 2309 441 2620 675 
Q 2931 909 2931 1356 
Q 2931 1769 2642 2001 
Q 2353 2234 1838 2234 
L 1294 2234 
L 1294 2753 
L 1863 2753 
Q 2328 2753 2575 2939 
Q 2822 3125 2822 3475 
Q 2822 3834 2567 4026 
Q 2313 4219 1838 4219 
Q 1578 4219 1281 4162 
Q 984 4106 628 3988 
L 628 4550 
Q 988 4650 1302 4700 
Q 1616 4750 1894 4750 
Q 2613 4750 3031 4423 
Q 3450 4097 3450 3541 
Q 3450 3153 3228 2886 
Q 3006 2619 2597 2516 
z
" transform="scale(0.015625)"/>
       </defs>
       <use xlink:href="#DejaVuSans-33"/>
       <use xlink:href="#DejaVuSans-30" x="63.623047"/>
       <use xlink:href="#DejaVuSans-30" x="127.246094"/>
      </g>
     </g>
    </g>
    <g id="ytick_8">
     <g id="line2d_15">
      <g>
       <use xlink:href="#m7c69e57fe6" x="57.6" y="66.024585" style="stroke: #000000; stroke-width: 0.8"/>
      </g>
     </g>
     <g id="text_17">
      <!-- 350 -->
      <g transform="translate(31.5125 69.823804) scale(0.1 -0.1)">
       <use xlink:href="#DejaVuSans-33"/>
       <use xlink:href="#DejaVuSans-35" x="63.623047"/>
       <use xlink:href="#DejaVuSans-30" x="127.246094"/>
      </g>
     </g>
    </g>
    <g id="text_18">
     <!-- Valeur brute (0-1023) -->
     <g style="fill: #1f77b4" transform="translate(25.432812 228.539719) rotate(-90) scale(0.1 -0.1)">
      <defs>
       <path id="DejaVuSans-56" d="M 1831 0 
L 50 4666 
L 709 4666 
L 2188 738 
L 3669 4666 
L 4325 4666 
L 2547 0 
L 1831 0 
z
" transform="scale(0.015625)"/>
       <path id="DejaVuSans-61" d="M 2194 1759 
Q 1497 1759 1228 1600 
Q 959 1441 959 1056 
Q 959 750 1161 570 
Q 1363 391 1709 391 
Q 2188 391 2477 730 
Q 2766 1069 2766 1631 
L 2766 1759 
L 2194 1759 
z
M 3341 1997 
L 3341 0 
L 2766 0 
L 2766 531 
Q 2569 213 2275 61 
Q 1981 -91 1556 -91 
Q 1019 -91 701 211 
Q 384 513 384 1019 
Q 384 1609 779 1909 
Q 1175 2209 1959 2209 
L 2766 2209 
L 2766 2266 
Q 2766 2663 2505 2880 
Q 2244 3097 1772 3097 
Q 1472 3097 1187 3025 
Q 903 2953 641 2809 
L 641 3341 
Q 956 3463 1253 3523 
Q 1550 3584 1831 3584 
Q 2591 3584 2966 3190 
Q 3341 2797 3341 1997 
z
" transform="scale(0.015625)"/>
       <path id="DejaVuSans-6c" d="M 603 4863 
L 1178 4863 
L 1178 0 
L 603 0 
L 603 4863 
z
" transform="scale(0.015625)"/>
       <path id="DejaVuSans-75" d="M 544 1381 
L 544 3500 
L 1119 3500 
L 1119 1403 
Q 1119 906 1312 657 
Q 1506 409 1894 409 
Q 2359 409 2629 706 
Q 2900 1003 2900 1516 
L 2900 3500 
L 3475 3500 
L 3475 0 
L 2900 0 
L 2900 538 
Q 2691 219 2414 64 
Q 2138 -91 1772 -91 
Q 1169 -91 856 284 
Q 544 659 544 1381 
z
M 1991 3584 
L 1991 3584 
z
" transform="scale(0.015625)"/>
       <path id="DejaVuSans-72" d="M 2631 2963 
Q 2534 3019 2420 3045 
Q 2306 3072 2169 3072 
Q 1681 3072 1420 2755 
Q 1159 2438 1159 1844 
L 1159 0 
L 581 0 
L 581 3500 
L 1159 3500 
L 1159 2956 
Q 1341 3275 1631 3429 
Q 1922 3584 2338 3584 
Q 2397 3584 2469 3576 
Q 2541 3569 2628 3553 
L 2631 2963 
z
" transform="scale(0.015625)"/>
       <path id="DejaVuSans-62" d="M 3116 1747 
Q 3116 2381 2855 2742 
Q 2594 3103 2138 3103 
Q 1681 3103 1420 2742 
Q 1159 2381 1159 1747 
Q 1159 1113 1420 752 
Q 1681 391 2138 391 
Q 2594 391 2855 752 
Q 3116 1113 3116 1747 
z
M 1159 2969 
Q 1341 3281 1617 3432 
Q 1894 3584 2278 3584 
Q 2916 3584 3314 3078 
Q 3713 2572 3713 1747 
Q 3713 922 3314 415 
Q 2916 -91 2278 -91 
Q 1894 -91 1617 61 
Q 1341 213 1159 525 
L 1159 0 
L 581 0 
L 581 4863 
L 1159 4863 
L 1159 2969 
z
" transform="scale(0.015625)"/>
       <path id="DejaVuSans-74" d="M 1172 4494 
L 1172 3500 
L 2356 3500 
L 2356 3053 
L 1172 3053 
L 1172 1153 
Q 1172 725 1289 603 
Q 1406 481 1766 481 
L 2356 481 
L 2356 0 
L 1766 0 
Q 1100 0 847 248 
Q 594 497 594 1153 
L 594 3053 
L 172 3053 
L 172 3500 
L 594 3500 
L 594 4494 
L 1172 4494 
z
" transform="scale(0.015625)"/>
       <path id="DejaVuSans-2d" d="M 313 2009 
L 1997 2009 
L 1997 1497 
L 313 1497 
L 313 2009 
z
" transform="scale(0.015625)"/>
      </defs>
      <use xlink:href="#DejaVuSans-56"/>
      <use xlink:href="#DejaVuSans-61" x="60.658203"/>
      <use xlink:href="#DejaVuSans-6c" x="121.9375"/>
      <use xlink:href="#DejaVuSans-65" x="149.720703"/>
      <use xlink:href="#DejaVuSans-75" x="211.244141"/>
      <use xlink:href="#DejaVuSans-72" x="274.623047"/>
      <use xlink:href="#DejaVuSans-20" x="315.736328"/>
      <use xlink:href="#DejaVuSans-62" x="347.523438"/>
      <use xlink:href="#DejaVuSans-72" x="411"/>
      <use xlink:href="#DejaVuSans-75" x="452.113281"/>
      <use xlink:href="#DejaVuSans-74" x="515.492188"/>
      <use xlink:href="#DejaVuSans-65" x="554.701172"/>
      <use xlink:href="#DejaVuSans-20" x="616.224609"/>
      <use xlink:href="#DejaVuSans-28" x="648.011719"/>
      <use xlink:href="#DejaVuSans-30" x="687.025391"/>
      <use xlink:href="#DejaVuSans-2d" x="750.648438"/>
      <use xlink:href="#DejaVuSans-31" x="786.732422"/>
      <use xlink:href="#DejaVuSans-30" x="850.355469"/>
      <use xlink:href="#DejaVuSans-32" x="913.978516"/>
      <use xlink:href="#DejaVuSans-33" x="977.601562"/>
      <use xlink:href="#DejaVuSans-29" x="1041.224609"/>
     </g>
    </g>
   </g>
   <g id="line2d_16">
    <path d="M 73.832727 295.488 
L 126.353048 295.488 
L 126.404997 195.835317 
L 126.456946 220.092878 
L 126.586818 295.488 
L 126.690716 241.728 
L 126.872537 53.568 
L 126.898511 70.613854 
L 126.924486 74.547512 
L 126.95046 217.470439 
L 127.054358 209.603122 
L 127.106307 209.603122 
L 127.210205 294.17678 
L 127.262154 265.329951 
L 127.288128 247.628488 
L 127.392026 250.906537 
L 127.469949 250.906537 
L 127.729694 289.587512 
L 127.911515 289.587512 
L 128.041387 291.554341 
L 128.145285 291.554341 
L 128.275157 294.83239 
L 128.431003 294.83239 
L 128.560876 295.488 
L 131.729758 295.488 
L 131.755732 292.865561 
L 131.85963 276.475317 
L 131.885604 280.408976 
L 132.015476 292.865561 
L 132.119374 292.865561 
L 132.301195 294.83239 
L 132.742761 294.83239 
L 132.872633 295.488 
L 137.496084 295.488 
L 137.625956 294.83239 
L 137.65193 294.83239 
L 137.781802 295.488 
L 144.820876 295.488 
L 144.872825 292.209951 
L 144.924774 292.865561 
L 145.080621 294.17678 
L 145.132569 294.17678 
L 145.288416 295.488 
L 148.015732 295.488 
L 148.197554 283.687024 
L 148.327426 295.488 
L 150.639151 295.488 
L 150.769023 291.554341 
L 150.950844 291.554341 
L 151.080717 295.488 
L 151.756052 295.488 
L 151.833975 281.064585 
L 151.885924 281.720195 
L 152.041771 283.031415 
L 152.067745 283.031415 
L 152.249566 295.488 
L 154.379471 295.488 
L 154.561292 287.620683 
L 154.587266 287.620683 
L 154.66519 292.209951 
L 154.795062 295.488 
L 158.950972 295.488 
L 159.05487 294.83239 
L 159.184742 295.488 
L 159.28864 295.488 
L 159.314615 294.17678 
L 159.366563 284.998244 
L 159.444487 286.309463 
L 159.574359 286.309463 
L 159.600333 286.965073 
L 159.730206 295.488 
L 164.639375 295.488 
L 164.769247 294.83239 
L 164.899119 295.488 
L 167.054998 295.488 
L 167.158896 290.898732 
L 167.18487 291.554341 
L 167.314743 295.488 
L 169.860238 295.488 
L 169.99011 294.83239 
L 170.119982 295.488 
L 170.483624 295.488 
L 170.561548 277.130927 
L 170.613497 279.753366 
L 170.847267 290.243122 
L 171.055062 290.243122 
L 171.210909 294.83239 
L 171.340781 295.488 
L 175.860334 295.488 
L 175.912283 292.865561 
L 175.964232 295.488 
L 179.159088 295.488 
L 179.211037 274.508488 
L 179.340909 280.408976 
L 179.52273 284.342634 
L 179.574679 284.342634 
L 179.704551 283.687024 
L 179.886372 283.687024 
L 180.22404 295.488 
L 181.574711 295.488 
L 181.62666 284.342634 
L 181.704583 286.965073 
L 181.782507 290.898732 
L 181.938353 294.83239 
L 182.016277 282.375805 
L 182.068225 286.965073 
L 182.120174 286.965073 
L 182.32797 291.554341 
L 182.457842 289.587512 
L 182.79551 295.488 
L 184.795542 295.488 
L 184.821516 292.865561 
L 184.847491 272.541659 
L 184.925414 276.475317 
L 185.081261 295.488 
L 185.159184 295.488 
L 185.237107 294.17678 
L 185.263082 294.83239 
L 185.392954 295.488 
L 190.302123 295.488 
L 190.328098 283.687024 
L 190.431996 284.998244 
L 190.561868 284.998244 
L 190.717714 286.309463 
L 190.821612 286.309463 
L 190.951484 295.488 
L 191.133306 295.488 
L 191.211229 294.83239 
L 191.237203 295.488 
L 192.32813 295.488 
L 192.406053 279.097756 
L 192.458002 280.408976 
L 192.483976 280.408976 
L 192.535925 283.687024 
L 192.691772 295.488 
L 196.899632 295.488 
L 197.006127 289.587512 
L 197.133402 294.17678 
L 197.211325 294.17678 
L 197.289248 283.687024 
L 197.393146 286.965073 
L 197.445095 286.965073 
L 197.704839 295.488 
L 199.471101 295.488 
L 199.549025 281.064585 
L 199.600973 284.998244 
L 199.99059 292.209951 
L 200.276309 292.209951 
L 200.510079 295.488 
L 208.094616 295.488 
L 208.198514 293.521171 
L 208.380335 295.488 
L 210.484264 295.488 
L 210.614137 292.865561 
L 210.69206 292.865561 
L 210.718034 293.521171 
L 210.795958 292.865561 
L 210.847907 292.865561 
L 211.055702 295.488 
L 211.912859 295.488 
L 212.042731 294.83239 
L 212.068705 294.83239 
L 212.198578 295.488 
L 217.211645 295.488 
L 217.263594 288.931902 
L 217.315543 294.17678 
L 217.471389 295.488 
L 218.692188 295.488 
L 218.82206 294.83239 
L 219.133754 294.83239 
L 219.185702 279.097756 
L 219.263626 279.753366 
L 219.445447 283.031415 
L 219.575319 294.83239 
L 219.653242 294.83239 
L 219.783115 295.488 
L 221.679249 295.488 
L 221.809121 280.408976 
L 221.941591 281.064585 
L 221.990942 281.064585 
L 222.016917 283.031415 
L 222.146789 295.488 
L 223.523434 295.488 
L 223.653306 294.83239 
L 223.705255 294.83239 
L 223.835127 295.488 
L 228.536501 295.488 
L 228.614425 288.276293 
L 228.640399 290.243122 
L 228.770271 295.488 
L 231.835255 295.488 
L 231.86123 294.83239 
L 231.915776 280.408976 
L 231.965128 283.031415 
L 232.095 295.488 
L 232.146949 295.488 
L 232.198898 286.309463 
L 232.250847 295.488 
L 235.082061 295.488 
L 235.13401 286.309463 
L 235.185958 294.17678 
L 235.315831 295.488 
L 235.36778 295.488 
L 235.471677 291.554341 
L 235.497652 292.865561 
L 235.679473 294.83239 
L 235.731422 294.83239 
L 235.861294 292.865561 
L 235.965192 292.865561 
L 236.095064 295.488 
L 238.069121 295.488 
L 238.198994 289.587512 
L 238.35484 289.587512 
L 238.484713 290.243122 
L 238.614585 290.243122 
L 238.926278 295.488 
L 241.39385 295.488 
L 241.523722 288.276293 
L 241.549697 288.276293 
L 241.601646 290.243122 
L 241.731518 295.488 
L 244.043243 295.488 
L 244.095192 280.408976 
L 244.147141 286.309463 
L 244.277013 295.488 
L 247.705639 295.488 
L 247.783563 291.554341 
L 247.809537 294.83239 
L 247.939409 295.488 
L 247.965384 295.488 
L 248.017333 283.687024 
L 248.069281 295.488 
L 248.329026 295.488 
L 248.380975 270.574829 
L 248.458898 277.786537 
L 248.562796 295.488 
L 248.58877 294.83239 
L 248.640719 294.83239 
L 248.770591 295.488 
L 253.394042 295.488 
L 253.471965 289.587512 
L 253.549889 290.898732 
L 253.653786 290.898732 
L 253.757684 290.243122 
L 253.913531 295.488 
L 253.991454 295.488 
L 254.069377 291.554341 
L 254.121326 292.209951 
L 254.251199 292.865561 
L 254.303147 292.865561 
L 254.458994 290.243122 
L 254.484969 290.243122 
L 254.796662 295.488 
L 259.446087 295.488 
L 259.472061 292.865561 
L 259.549985 295.488 
L 262.874713 295.488 
L 262.926662 271.886049 
L 262.978611 290.243122 
L 263.108483 295.488 
L 265.004617 295.488 
L 265.13449 294.83239 
L 265.472157 294.83239 
L 265.60203 295.488 
L 274.511263 295.488 
L 274.589186 290.898732 
L 274.615161 292.865561 
L 274.745033 295.488 
L 284.043883 295.488 
L 284.121806 288.931902 
L 284.173755 290.243122 
L 284.303627 295.488 
L 284.355576 295.488 
L 284.407525 286.309463 
L 284.485449 291.554341 
L 284.589346 291.554341 
L 284.771167 295.488 
L 340.330498 295.488 
L 340.382447 294.83239 
L 340.434396 295.488 
L 349.681297 295.488 
L 349.785195 289.587512 
L 349.811169 292.865561 
L 349.943639 295.488 
L 398.487273 295.488 
L 398.487273 295.488 
" clip-path="url(#p32ceed12d9)" style="fill: none; stroke-dasharray: 5.55,2.4; stroke-dashoffset: 0; stroke: #1f77b4; stroke-width: 1.5"/>
   </g>
   <g id="patch_3">
    <path d="M 57.6 307.584 
L 57.6 41.472 
" style="fill: none; stroke: #000000; stroke-width: 0.8; stroke-linejoin: miter; stroke-linecap: square"/>
   </g>
   <g id="patch_4">
    <path d="M 414.72 307.584 
L 414.72 41.472 
" style="fill: none; stroke: #000000; stroke-width: 0.8; stroke-linejoin: miter; stroke-linecap: square"/>
   </g>
   <g id="patch_5">
    <path d="M 57.6 307.584 
L 414.72 307.584 
" style="fill: none; stroke: #000000; stroke-width: 0.8; stroke-linejoin: miter; stroke-linecap: square"/>
   </g>
   <g id="patch_6">
    <path d="M 57.6 41.472 
L 414.72 41.472 
" style="fill: none; stroke: #000000; stroke-width: 0.8; stroke-linejoin: miter; stroke-linecap: square"/>
   </g>
   <g id="text_19">
    <!-- Valeurs du Tensionomètre -->
    <g transform="translate(158.676562 35.472) scale(0.12 -0.12)">
     <defs>
      <path id="DejaVuSans-64" d="M 2906 2969 
L 2906 4863 
L 3481 4863 
L 3481 0 
L 2906 0 
L 2906 525 
Q 2725 213 2448 61 
Q 2172 -91 1784 -91 
Q 1150 -91 751 415 
Q 353 922 353 1747 
Q 353 2572 751 3078 
Q 1150 3584 1784 3584 
Q 2172 3584 2448 3432 
Q 2725 3281 2906 2969 
z
M 947 1747 
Q 947 1113 1208 752 
Q 1469 391 1925 391 
Q 2381 391 2643 752 
Q 2906 1113 2906 1747 
Q 2906 2381 2643 2742 
Q 2381 3103 1925 3103 
Q 1469 3103 1208 2742 
Q 947 2381 947 1747 
z
" transform="scale(0.015625)"/>
      <path id="DejaVuSans-6e" d="M 3513 2113 
L 3513 0 
L 2938 0 
L 2938 2094 
Q 2938 2591 2744 2837 
Q 2550 3084 2163 3084 
Q 1697 3084 1428 2787 
Q 1159 2491 1159 1978 
L 1159 0 
L 581 0 
L 581 3500 
L 1159 3500 
L 1159 2956 
Q 1366 3272 1645 3428 
Q 1925 3584 2291 3584 
Q 2894 3584 3203 3211 
Q 3513 2838 3513 2113 
z
" transform="scale(0.015625)"/>
      <path id="DejaVuSans-69" d="M 603 3500 
L 1178 3500 
L 1178 0 
L 603 0 
L 603 3500 
z
M 603 4863 
L 1178 4863 
L 1178 4134 
L 603 4134 
L 603 4863 
z
" transform="scale(0.015625)"/>
      <path id="DejaVuSans-6f" d="M 1959 3097 
Q 1497 3097 1228 2736 
Q 959 2375 959 1747 
Q 959 1119 1226 758 
Q 1494 397 1959 397 
Q 2419 397 2687 759 
Q 2956 1122 2956 1747 
Q 2956 2369 2687 2733 
Q 2419 3097 1959 3097 
z
M 1959 3584 
Q 2709 3584 3137 3096 
Q 3566 2609 3566 1747 
Q 3566 888 3137 398 
Q 2709 -91 1959 -91 
Q 1206 -91 779 398 
Q 353 888 353 1747 
Q 353 2609 779 3096 
Q 1206 3584 1959 3584 
z
" transform="scale(0.015625)"/>
      <path id="DejaVuSans-e8" d="M 3597 1894 
L 3597 1613 
L 953 1613 
Q 991 1019 1311 708 
Q 1631 397 2203 397 
Q 2534 397 2845 478 
Q 3156 559 3463 722 
L 3463 178 
Q 3153 47 2828 -22 
Q 2503 -91 2169 -91 
Q 1331 -91 842 396 
Q 353 884 353 1716 
Q 353 2575 817 3079 
Q 1281 3584 2069 3584 
Q 2775 3584 3186 3129 
Q 3597 2675 3597 1894 
z
M 3022 2063 
Q 3016 2534 2758 2815 
Q 2500 3097 2075 3097 
Q 1594 3097 1305 2825 
Q 1016 2553 972 2059 
L 3022 2063 
z
M 1579 5119 
L 2460 3950 
L 1982 3950 
L 963 5119 
L 1579 5119 
z
" transform="scale(0.015625)"/>
     </defs>
     <use xlink:href="#DejaVuSans-56"/>
     <use xlink:href="#DejaVuSans-61" x="60.658203"/>
     <use xlink:href="#DejaVuSans-6c" x="121.9375"/>
     <use xlink:href="#DejaVuSans-65" x="149.720703"/>
     <use xlink:href="#DejaVuSans-75" x="211.244141"/>
     <use xlink:href="#DejaVuSans-72" x="274.623047"/>
     <use xlink:href="#DejaVuSans-73" x="315.736328"/>
     <use xlink:href="#DejaVuSans-20" x="367.835938"/>
     <use xlink:href="#DejaVuSans-64" x="399.623047"/>
     <use xlink:href="#DejaVuSans-75" x="463.099609"/>
     <use xlink:href="#DejaVuSans-20" x="526.478516"/>
     <use xlink:href="#DejaVuSans-54" x="558.265625"/>
     <use xlink:href="#DejaVuSans-65" x="602.349609"/>
     <use xlink:href="#DejaVuSans-6e" x="663.873047"/>
     <use xlink:href="#DejaVuSans-73" x="727.251953"/>
     <use xlink:href="#DejaVuSans-69" x="779.351562"/>
     <use xlink:href="#DejaVuSans-6f" x="807.134766"/>
     <use xlink:href="#DejaVuSans-6e" x="868.316406"/>
     <use xlink:href="#DejaVuSans-6f" x="931.695312"/>
     <use xlink:href="#DejaVuSans-6d" x="992.876953"/>
     <use xlink:href="#DejaVuSans-e8" x="1090.289062"/>
     <use xlink:href="#DejaVuSans-74" x="1151.8125"/>
     <use xlink:href="#DejaVuSans-72" x="1191.021484"/>
     <use xlink:href="#DejaVuSans-65" x="1229.884766"/>
    </g>
   </g>
  </g>
  <g id="axes_2">
   <g id="matplotlib.axis_3">
    <g id="ytick_9">
     <g id="line2d_17">
      <path d="M 57.6 306.786736 
L 414.72 306.786736 
" clip-path="url(#p32ceed12d9)" style="fill: none; stroke: #b0b0b0; stroke-width: 0.8; stroke-linecap: square"/>
     </g>
     <g id="line2d_18">
      <defs>
       <path id="ma3e56037dc" d="M 0 0 
L 3.5 0 
" style="stroke: #000000; stroke-width: 0.8"/>
      </defs>
      <g>
       <use xlink:href="#ma3e56037dc" x="414.72" y="306.786736" style="stroke: #000000; stroke-width: 0.8"/>
      </g>
     </g>
     <g id="text_20">
      <!-- 0 -->
      <g transform="translate(421.72 310.585955) scale(0.1 -0.1)">
       <use xlink:href="#DejaVuSans-30"/>
      </g>
     </g>
    </g>
    <g id="ytick_10">
     <g id="line2d_19">
      <path d="M 57.6 269.244418 
L 414.72 269.244418 
" clip-path="url(#p32ceed12d9)" style="fill: none; stroke: #b0b0b0; stroke-width: 0.8; stroke-linecap: square"/>
     </g>
     <g id="line2d_20">
      <g>
       <use xlink:href="#ma3e56037dc" x="414.72" y="269.244418" style="stroke: #000000; stroke-width: 0.8"/>
      </g>
     </g>
     <g id="text_21">
      <!-- 10 -->
      <g transform="translate(421.72 273.043637) scale(0.1 -0.1)">
       <use xlink:href="#DejaVuSans-31"/>
       <use xlink:href="#DejaVuSans-30" x="63.623047"/>
      </g>
     </g>
    </g>
    <g id="ytick_11">
     <g id="line2d_21">
      <path d="M 57.6 231.7021 
L 414.72 231.7021 
" clip-path="url(#p32ceed12d9)" style="fill: none; stroke: #b0b0b0; stroke-width: 0.8; stroke-linecap: square"/>
     </g>
     <g id="line2d_22">
      <g>
       <use xlink:href="#ma3e56037dc" x="414.72" y="231.7021" style="stroke: #000000; stroke-width: 0.8"/>
      </g>
     </g>
     <g id="text_22">
      <!-- 20 -->
      <g transform="translate(421.72 235.501319) scale(0.1 -0.1)">
       <use xlink:href="#DejaVuSans-32"/>
       <use xlink:href="#DejaVuSans-30" x="63.623047"/>
      </g>
     </g>
    </g>
    <g id="ytick_12">
     <g id="line2d_23">
      <path d="M 57.6 194.159782 
L 414.72 194.159782 
" clip-path="url(#p32ceed12d9)" style="fill: none; stroke: #b0b0b0; stroke-width: 0.8; stroke-linecap: square"/>
     </g>
     <g id="line2d_24">
      <g>
       <use xlink:href="#ma3e56037dc" x="414.72" y="194.159782" style="stroke: #000000; stroke-width: 0.8"/>
      </g>
     </g>
     <g id="text_23">
      <!-- 30 -->
      <g transform="translate(421.72 197.959001) scale(0.1 -0.1)">
       <use xlink:href="#DejaVuSans-33"/>
       <use xlink:href="#DejaVuSans-30" x="63.623047"/>
      </g>
     </g>
    </g>
    <g id="ytick_13">
     <g id="line2d_25">
      <path d="M 57.6 156.617465 
L 414.72 156.617465 
" clip-path="url(#p32ceed12d9)" style="fill: none; stroke: #b0b0b0; stroke-width: 0.8; stroke-linecap: square"/>
     </g>
     <g id="line2d_26">
      <g>
       <use xlink:href="#ma3e56037dc" x="414.72" y="156.617465" style="stroke: #000000; stroke-width: 0.8"/>
      </g>
     </g>
     <g id="text_24">
      <!-- 40 -->
      <g transform="translate(421.72 160.416683) scale(0.1 -0.1)">
       <use xlink:href="#DejaVuSans-34"/>
       <use xlink:href="#DejaVuSans-30" x="63.623047"/>
      </g>
     </g>
    </g>
    <g id="ytick_14">
     <g id="line2d_27">
      <path d="M 57.6 119.075147 
L 414.72 119.075147 
" clip-path="url(#p32ceed12d9)" style="fill: none; stroke: #b0b0b0; stroke-width: 0.8; stroke-linecap: square"/>
     </g>
     <g id="line2d_28">
      <g>
       <use xlink:href="#ma3e56037dc" x="414.72" y="119.075147" style="stroke: #000000; stroke-width: 0.8"/>
      </g>
     </g>
     <g id="text_25">
      <!-- 50 -->
      <g transform="translate(421.72 122.874365) scale(0.1 -0.1)">
       <use xlink:href="#DejaVuSans-35"/>
       <use xlink:href="#DejaVuSans-30" x="63.623047"/>
      </g>
     </g>
    </g>
    <g id="ytick_15">
     <g id="line2d_29">
      <path d="M 57.6 81.532829 
L 414.72 81.532829 
" clip-path="url(#p32ceed12d9)" style="fill: none; stroke: #b0b0b0; stroke-width: 0.8; stroke-linecap: square"/>
     </g>
     <g id="line2d_30">
      <g>
       <use xlink:href="#ma3e56037dc" x="414.72" y="81.532829" style="stroke: #000000; stroke-width: 0.8"/>
      </g>
     </g>
     <g id="text_26">
      <!-- 60 -->
      <g transform="translate(421.72 85.332048) scale(0.1 -0.1)">
       <use xlink:href="#DejaVuSans-36"/>
       <use xlink:href="#DejaVuSans-30" x="63.623047"/>
      </g>
     </g>
    </g>
    <g id="ytick_16">
     <g id="line2d_31">
      <path d="M 57.6 43.990511 
L 414.72 43.990511 
" clip-path="url(#p32ceed12d9)" style="fill: none; stroke: #b0b0b0; stroke-width: 0.8; stroke-linecap: square"/>
     </g>
     <g id="line2d_32">
      <g>
       <use xlink:href="#ma3e56037dc" x="414.72" y="43.990511" style="stroke: #000000; stroke-width: 0.8"/>
      </g>
     </g>
     <g id="text_27">
      <!-- 70 -->
      <g transform="translate(421.72 47.78973) scale(0.1 -0.1)">
       <use xlink:href="#DejaVuSans-37"/>
       <use xlink:href="#DejaVuSans-30" x="63.623047"/>
      </g>
     </g>
    </g>
    <g id="text_28">
     <!-- Valeur calibrée (kg) -->
     <g style="fill: #d62728" transform="translate(446.443438 223.325656) rotate(-90) scale(0.1 -0.1)">
      <defs>
       <path id="DejaVuSans-63" d="M 3122 3366 
L 3122 2828 
Q 2878 2963 2633 3030 
Q 2388 3097 2138 3097 
Q 1578 3097 1268 2742 
Q 959 2388 959 1747 
Q 959 1106 1268 751 
Q 1578 397 2138 397 
Q 2388 397 2633 464 
Q 2878 531 3122 666 
L 3122 134 
Q 2881 22 2623 -34 
Q 2366 -91 2075 -91 
Q 1284 -91 818 406 
Q 353 903 353 1747 
Q 353 2603 823 3093 
Q 1294 3584 2113 3584 
Q 2378 3584 2631 3529 
Q 2884 3475 3122 3366 
z
" transform="scale(0.015625)"/>
       <path id="DejaVuSans-e9" d="M 3597 1894 
L 3597 1613 
L 953 1613 
Q 991 1019 1311 708 
Q 1631 397 2203 397 
Q 2534 397 2845 478 
Q 3156 559 3463 722 
L 3463 178 
Q 3153 47 2828 -22 
Q 2503 -91 2169 -91 
Q 1331 -91 842 396 
Q 353 884 353 1716 
Q 353 2575 817 3079 
Q 1281 3584 2069 3584 
Q 2775 3584 3186 3129 
Q 3597 2675 3597 1894 
z
M 3022 2063 
Q 3016 2534 2758 2815 
Q 2500 3097 2075 3097 
Q 1594 3097 1305 2825 
Q 1016 2553 972 2059 
L 3022 2063 
z
M 2466 5119 
L 3088 5119 
L 2070 3944 
L 1591 3944 
L 2466 5119 
z
" transform="scale(0.015625)"/>
       <path id="DejaVuSans-6b" d="M 581 4863 
L 1159 4863 
L 1159 1991 
L 2875 3500 
L 3609 3500 
L 1753 1863 
L 3688 0 
L 2938 0 
L 1159 1709 
L 1159 0 
L 581 0 
L 581 4863 
z
" transform="scale(0.015625)"/>
       <path id="DejaVuSans-67" d="M 2906 1791 
Q 2906 2416 2648 2759 
Q 2391 3103 1925 3103 
Q 1463 3103 1205 2759 
Q 947 2416 947 1791 
Q 947 1169 1205 825 
Q 1463 481 1925 481 
Q 2391 481 2648 825 
Q 2906 1169 2906 1791 
z
M 3481 434 
Q 3481 -459 3084 -895 
Q 2688 -1331 1869 -1331 
Q 1566 -1331 1297 -1286 
Q 1028 -1241 775 -1147 
L 775 -588 
Q 1028 -725 1275 -790 
Q 1522 -856 1778 -856 
Q 2344 -856 2625 -561 
Q 2906 -266 2906 331 
L 2906 616 
Q 2728 306 2450 153 
Q 2172 0 1784 0 
Q 1141 0 747 490 
Q 353 981 353 1791 
Q 353 2603 747 3093 
Q 1141 3584 1784 3584 
Q 2172 3584 2450 3431 
Q 2728 3278 2906 2969 
L 2906 3500 
L 3481 3500 
L 3481 434 
z
" transform="scale(0.015625)"/>
      </defs>
      <use xlink:href="#DejaVuSans-56"/>
      <use xlink:href="#DejaVuSans-61" x="60.658203"/>
      <use xlink:href="#DejaVuSans-6c" x="121.9375"/>
      <use xlink:href="#DejaVuSans-65" x="149.720703"/>
      <use xlink:href="#DejaVuSans-75" x="211.244141"/>
      <use xlink:href="#DejaVuSans-72" x="274.623047"/>
      <use xlink:href="#DejaVuSans-20" x="315.736328"/>
      <use xlink:href="#DejaVuSans-63" x="347.523438"/>
      <use xlink:href="#DejaVuSans-61" x="402.503906"/>
      <use xlink:href="#DejaVuSans-6c" x="463.783203"/>
      <use xlink:href="#DejaVuSans-69" x="491.566406"/>
      <use xlink:href="#DejaVuSans-62" x="519.349609"/>
      <use xlink:href="#DejaVuSans-72" x="582.826172"/>
      <use xlink:href="#DejaVuSans-e9" x="621.689453"/>
      <use xlink:href="#DejaVuSans-65" x="683.212891"/>
      <use xlink:href="#DejaVuSans-20" x="744.736328"/>
      <use xlink:href="#DejaVuSans-28" x="776.523438"/>
      <use xlink:href="#DejaVuSans-6b" x="815.537109"/>
      <use xlink:href="#DejaVuSans-67" x="873.447266"/>
      <use xlink:href="#DejaVuSans-29" x="936.923828"/>
     </g>
    </g>
   </g>
   <g id="line2d_33">
    <path d="M 73.832727 295.488 
L 126.353048 295.488 
L 126.404997 159.206527 
L 126.456946 186.843629 
L 126.586818 295.488 
L 126.872537 53.568 
L 126.924486 64.06983 
L 126.95046 183.695868 
L 127.054358 174.48829 
L 127.106307 174.48829 
L 127.210205 293.279004 
L 127.288128 222.351047 
L 127.418 226.885847 
L 127.469949 226.885847 
L 127.729694 285.641604 
L 127.911515 285.641604 
L 128.041387 288.896908 
L 128.145285 288.896908 
L 128.275157 294.382003 
L 128.431003 294.382003 
L 128.560876 295.488 
L 131.729758 295.488 
L 131.755732 291.081986 
L 131.85963 264.615158 
L 131.885604 270.800797 
L 132.015476 291.081986 
L 132.119374 291.081986 
L 132.301195 294.382003 
L 132.742761 294.382003 
L 132.872633 295.488 
L 137.496084 295.488 
L 137.625956 294.382003 
L 137.65193 294.382003 
L 137.781802 295.488 
L 144.820876 295.488 
L 144.872825 289.987957 
L 144.924774 291.081986 
L 145.080621 293.279004 
L 145.132569 293.279004 
L 145.288416 295.488 
L 148.015732 295.488 
L 148.197554 276.035199 
L 148.327426 295.488 
L 150.639151 295.488 
L 150.769023 288.896908 
L 150.950844 288.896908 
L 151.080717 295.488 
L 151.756052 295.488 
L 151.833975 271.84186 
L 151.885924 272.885827 
L 152.041771 274.982492 
L 152.067745 274.982492 
L 152.249566 295.488 
L 154.379471 295.488 
L 154.561292 282.412966 
L 154.587266 282.412966 
L 154.66519 289.987957 
L 154.795062 295.488 
L 158.950972 295.488 
L 159.05487 294.382003 
L 159.184742 295.488 
L 159.28864 295.488 
L 159.314615 293.279004 
L 159.366563 278.149384 
L 159.444487 280.275294 
L 159.574359 280.275294 
L 159.600333 281.342658 
L 159.730206 295.488 
L 164.639375 295.488 
L 164.769247 294.382003 
L 164.899119 295.488 
L 167.054998 295.488 
L 167.158896 287.808837 
L 167.18487 288.896908 
L 167.314743 295.488 
L 169.860238 295.488 
L 169.99011 294.382003 
L 170.119982 295.488 
L 170.483624 295.488 
L 170.561548 265.63889 
L 170.613497 269.762634 
L 170.847267 286.723737 
L 171.055062 286.723737 
L 171.210909 294.382003 
L 171.340781 295.488 
L 175.860334 295.488 
L 175.912283 291.081986 
L 175.964232 295.488 
L 179.159088 295.488 
L 179.211037 261.561182 
L 179.340909 270.800797 
L 179.52273 277.090828 
L 179.574679 277.090828 
L 179.704551 276.035199 
L 179.886372 276.035199 
L 180.22404 295.488 
L 181.574711 295.488 
L 181.62666 277.090828 
L 181.704583 281.342658 
L 181.782507 287.808837 
L 181.938353 294.382003 
L 182.016277 273.932703 
L 182.068225 281.342658 
L 182.120174 281.342658 
L 182.32797 288.896908 
L 182.457842 285.641604 
L 182.79551 295.488 
L 184.795542 295.488 
L 184.821516 291.081986 
L 184.847491 258.532938 
L 184.925414 264.615158 
L 185.081261 295.488 
L 185.159184 295.488 
L 185.237107 293.279004 
L 185.263082 294.382003 
L 185.392954 295.488 
L 190.302123 295.488 
L 190.328098 276.035199 
L 190.431996 278.149384 
L 190.561868 278.149384 
L 190.717714 280.275294 
L 190.821612 280.275294 
L 190.951484 295.488 
L 191.133306 295.488 
L 191.211229 294.382003 
L 191.237203 295.488 
L 192.32813 295.488 
L 192.406053 268.727367 
L 192.458002 270.800797 
L 192.483976 270.800797 
L 192.535925 276.035199 
L 192.691772 295.488 
L 196.899632 295.488 
L 197.006127 285.641604 
L 197.133402 293.279004 
L 197.211325 293.279004 
L 197.289248 276.035199 
L 197.393146 281.342658 
L 197.445095 281.342658 
L 197.704839 295.488 
L 199.471101 295.488 
L 199.549025 271.84186 
L 199.600973 278.149384 
L 199.99059 289.987957 
L 200.276309 289.987957 
L 200.510079 295.488 
L 208.094616 295.488 
L 208.198514 292.179 
L 208.380335 295.488 
L 210.484264 295.488 
L 210.614137 291.081986 
L 210.69206 291.081986 
L 210.718034 292.179 
L 210.795958 291.081986 
L 210.847907 291.081986 
L 211.055702 295.488 
L 211.912859 295.488 
L 212.042731 294.382003 
L 212.068705 294.382003 
L 212.198578 295.488 
L 217.211645 295.488 
L 217.263594 284.562435 
L 217.315543 293.279004 
L 217.471389 295.488 
L 218.692188 295.488 
L 218.82206 294.382003 
L 219.133754 294.382003 
L 219.185702 268.727367 
L 219.263626 269.762634 
L 219.445447 274.982492 
L 219.575319 294.382003 
L 219.653242 294.382003 
L 219.783115 295.488 
L 221.679249 295.488 
L 221.809121 270.800797 
L 221.941591 271.84186 
L 221.990942 271.84186 
L 222.016917 274.982492 
L 222.146789 295.488 
L 223.523434 295.488 
L 223.653306 294.382003 
L 223.705255 294.382003 
L 223.835127 295.488 
L 228.536501 295.488 
L 228.614425 283.486223 
L 228.640399 286.723737 
L 228.770271 295.488 
L 231.835255 295.488 
L 231.86123 294.382003 
L 231.915776 270.800797 
L 231.965128 274.982492 
L 232.095 295.488 
L 232.146949 295.488 
L 232.198898 280.275294 
L 232.250847 295.488 
L 235.082061 295.488 
L 235.13401 280.275294 
L 235.185958 293.279004 
L 235.315831 295.488 
L 235.36778 295.488 
L 235.471677 288.896908 
L 235.497652 291.081986 
L 235.679473 294.382003 
L 235.731422 294.382003 
L 235.861294 291.081986 
L 235.965192 291.081986 
L 236.095064 295.488 
L 238.069121 295.488 
L 238.198994 285.641604 
L 238.35484 285.641604 
L 238.484713 286.723737 
L 238.614585 286.723737 
L 238.926278 295.488 
L 241.39385 295.488 
L 241.523722 283.486223 
L 241.549697 283.486223 
L 241.601646 286.723737 
L 241.731518 295.488 
L 244.043243 295.488 
L 244.095192 270.800797 
L 244.147141 280.275294 
L 244.277013 295.488 
L 247.705639 295.488 
L 247.783563 288.896908 
L 247.809537 294.382003 
L 247.939409 295.488 
L 247.965384 295.488 
L 248.017333 276.035199 
L 248.069281 295.488 
L 248.329026 295.488 
L 248.380975 255.530306 
L 248.458898 266.665499 
L 248.562796 295.488 
L 248.58877 294.382003 
L 248.640719 294.382003 
L 248.770591 295.488 
L 253.394042 295.488 
L 253.471965 285.641604 
L 253.549889 287.808837 
L 253.653786 287.808837 
L 253.757684 286.723737 
L 253.913531 295.488 
L 253.991454 295.488 
L 254.069377 288.896908 
L 254.121326 289.987957 
L 254.251199 291.081986 
L 254.303147 291.081986 
L 254.458994 286.723737 
L 254.484969 286.723737 
L 254.796662 295.488 
L 259.446087 295.488 
L 259.472061 291.081986 
L 259.549985 295.488 
L 262.874713 295.488 
L 262.926662 257.529221 
L 262.978611 286.723737 
L 263.108483 295.488 
L 265.004617 295.488 
L 265.13449 294.382003 
L 265.472157 294.382003 
L 265.60203 295.488 
L 274.511263 295.488 
L 274.589186 287.808837 
L 274.615161 291.081986 
L 274.745033 295.488 
L 284.043883 295.488 
L 284.121806 284.562435 
L 284.173755 286.723737 
L 284.303627 295.488 
L 284.355576 295.488 
L 284.407525 280.275294 
L 284.485449 288.896908 
L 284.589346 288.896908 
L 284.771167 295.488 
L 340.330498 295.488 
L 340.382447 294.382003 
L 340.434396 295.488 
L 349.681297 295.488 
L 349.785195 285.641604 
L 349.811169 291.081986 
L 349.943639 295.488 
L 398.487273 295.488 
L 398.487273 295.488 
" clip-path="url(#p32ceed12d9)" style="fill: none; stroke: #d62728; stroke-width: 1.5; stroke-linecap: square"/>
   </g>
   <g id="patch_7">
    <path d="M 57.6 307.584 
L 57.6 41.472 
" style="fill: none; stroke: #000000; stroke-width: 0.8; stroke-linejoin: miter; stroke-linecap: square"/>
   </g>
   <g id="patch_8">
    <path d="M 414.72 307.584 
L 414.72 41.472 
" style="fill: none; stroke: #000000; stroke-width: 0.8; stroke-linejoin: miter; stroke-linecap: square"/>
   </g>
   <g id="patch_9">
    <path d="M 57.6 307.584 
L 414.72 307.584 
" style="fill: none; stroke: #000000; stroke-width: 0.8; stroke-linejoin: miter; stroke-linecap: square"/>
   </g>
   <g id="patch_10">
    <path d="M 57.6 41.472 
L 414.72 41.472 
" style="fill: none; stroke: #000000; stroke-width: 0.8; stroke-linejoin: miter; stroke-linecap: square"/>
   </g>
  </g>
 </g>
 <defs>
  <clipPath id="p32ceed12d9">
   <rect x="57.6" y="41.472" width="357.12" height="266.112"/>
  </clipPath>
 </defs>
</svg>
